<svg width="99" height="98" viewBox="0 0 99 98" fill="none" xmlns="http://www.w3.org/2000/svg">
<g opacity="0.75">
<path d="M89.75 30.7044C90.5319 30.7044 91.1803 30.056 91.1803 29.2741V26.0892C94.9754 25.4027 97.8552 22.1034 97.8552 18.1175C97.8552 15.9244 96.9779 11.7859 95.8146 8.48665C94.0982 3.62353 92.0576 1.14429 89.75 1.14429C87.4424 1.14429 85.4018 3.62353 83.6854 8.48665C82.9988 10.451 82.3616 13.0359 81.9993 15.0002C79.5391 14.8858 77.9594 15.0002 75.4993 15.0002C72.8484 15.0002 69.9785 15.4476 67.4993 16.4011C64.5051 17.5645 62.4378 18.8112 61.9992 21.5002C61.3508 25.3335 63.9669 28.9298 66.8085 31.8095L66.9992 32.0002C69.5356 34.5558 71.5582 36.2731 73.9993 39.0002C73.2174 40.7548 72.2809 43.73 71.518 46.3236C69.8589 51.9687 67.1748 65.4576 66.6931 74.2055C66.5977 74.9874 67.1317 75.7122 67.9136 75.8075C68.6955 75.9219 68.9039 75.2822 68.9993 74.5002C69.5517 65.7325 71.3083 52.5118 72.9293 47.0002C75.9044 36.8926 78.9993 35.5002 79.4993 35.5002C80.5482 35.5002 85.2873 40.2846 87.4993 52.5002C89.6543 61.7497 90.4993 71.3067 90.4993 74.587C90.4993 80.5753 85.5806 86.4492 80.7366 87.2692V62.0002C80.7366 61.2183 80.2812 60.5002 79.4993 60.5002C78.7174 60.5002 78.4993 61.2183 78.4993 62.0002V87.2692C72.9293 87.0002 68.9993 80.4886 68.9993 74.5002C68.9993 74.2332 68.9993 73.9472 69.0183 73.6039C69.0565 72.822 68.9625 72.2412 68.1615 72.2031C67.3796 72.1649 66.7121 72.7752 66.674 73.5762C66.6549 73.9576 66.6549 74.3009 66.6549 74.587C66.6549 79.965 69.1723 84.6946 72.9293 87.2692C70.6789 89.8629 69.2486 92.1514 68.3713 94.5925C68.1043 95.3363 68.133 96.0496 68.8768 96.3166C69.0294 96.3738 69.1466 96.3935 69.1466 96.3935C69.7378 96.3935 70.2895 96.0724 70.4993 95.5002C71.3193 93.2499 72.2298 91.0367 74.4993 88.5002C75.3193 88.8054 77.2203 89.1572 78.0976 89.2717V94.6116C78.0976 95.3935 78.746 96.0419 79.5279 96.0419C80.3098 96.0419 80.9582 95.3935 80.9582 94.6116V89.2717C87.3852 88.4516 92.4009 82.1772 92.4009 74.587C92.4009 70.6583 91.0468 60.6079 89.0062 51.9496C87.8429 46.9339 86.5842 42.9099 85.2873 39.973C83.5137 35.9871 81.6448 34.0419 79.5279 34.0419C78.0022 34.0419 76.61 35.4406 75.256 37.5002C72.9865 35.0019 70.4501 32.5367 68.1234 30.191L67.9327 30.0002C65.6251 27.6545 63.6798 24.8115 64.1185 22.256C64.4045 20.5777 65.8921 18.9948 67.9327 18.1938C69.9351 17.4119 72.6344 17.0002 74.9992 17.0002C77.345 17.0002 79.9992 16.5002 81.6638 17.5073C81.6448 17.7361 81.6448 17.9268 81.6448 18.1175C81.6448 22.1034 84.5245 25.4218 88.3196 26.0892V29.2741C88.3196 30.056 88.9681 30.7044 89.75 30.7044ZM83.9993 18.1175C83.9993 16.4584 84.3359 12.8186 85.4993 9.50024C87.0631 5.03762 89.3495 3.27237 89.75 3.27237C90.1505 3.27237 92.4164 5.03762 93.9993 9.50024C95.1626 12.8186 95.4993 16.4584 95.4993 18.1175C95.4993 20.5205 93.3735 23.542 91.1803 24.1714V17.8315C91.1803 17.0496 90.5319 16.4011 89.75 16.4011C88.9681 16.4011 88.3196 17.0496 88.3196 17.8315V24.1714C86.1265 23.542 83.9993 20.5205 83.9993 18.1175Z" fill="#C9A86C"/>
<path d="M73.3301 8.48652C73.2919 7.70461 72.6054 7.09434 71.8235 7.13248C66.1212 7.45669 60.8195 8.29581 55.6131 9.688C53.6487 10.222 51.1695 11.0611 49.4722 13.0064C46.745 16.1149 46.745 21.0162 49.4913 26.7947C49.701 27.2334 49.9108 27.6529 50.1206 28.0916C51.7416 31.429 53.4199 34.8809 52.638 38.123C51.7416 41.8037 47.9274 44.2448 44.2849 46.1328C42.454 47.0864 40.6041 47.9255 38.7542 48.6883V46.0947C42.5494 45.4081 45.4291 42.1088 45.4291 38.123C45.4291 36.0442 44.6091 30.2466 43.4267 25.3072C41.1572 15.7145 38.964 14.4748 37.3239 14.4748C36.1415 14.4748 34.673 15.1042 33.0901 19.0519C32.9376 18.3272 32.7659 17.6216 32.5943 16.9159C31.5454 12.5296 30.4202 8.98237 29.2569 6.40778C27.6358 2.87963 25.9003 1.14417 23.9551 1.14417C21.247 1.14417 17.2802 10.7751 15.0871 17.8886C14.8582 18.6514 15.2778 19.4524 16.0406 19.6812C16.8035 19.9101 17.2707 19.263 17.4995 18.5001C19.4541 9.81323 21.9995 4.00482 23.9551 4.00482C25.4995 4.00482 27.2956 4.46253 30.4995 17.8886C32.2731 25.2881 33.1474 33.5459 33.1474 36.8833C33.1474 42.0897 29.9995 48.0001 24.9995 48.0001V26.7947C24.9995 26.0128 24.737 25.0402 23.9551 25.0402C23.1732 25.0402 22.9995 26.0128 22.9995 26.7947V48.0001C17.5036 48.0001 14.4995 42.0897 14.4995 36.8643C14.4995 33.8129 15.2593 25.7726 17.4995 18.5001C17.6712 17.7373 17.5282 17.1829 16.7653 17.0113C16.0025 16.8396 15.2206 17.3164 15.0489 18.0793C12.9995 26.0001 12.2836 33.584 12.2836 36.8643C12.2836 43.6917 16.7653 49.3177 22.5248 50.1377V55.592C22.0289 55.859 21.5331 56.1451 21.0372 56.4312C11.864 61.7901 5.3036 67.6259 0.974472 74.2626C0.535837 74.9301 0.726548 75.8074 1.39404 76.246C1.64196 76.3986 1.90895 76.4749 2.17595 76.4749C2.65273 76.4749 3.11043 76.246 3.37743 75.8264C7.45863 69.5711 13.2268 63.6112 21.9995 58.5001C26.0235 56.1544 30.2676 54.1402 34.5014 52.5001C38.0295 51.127 41.7865 49.9072 45.4291 48.0001C49.6248 45.8069 53.3362 43.287 54.4995 38.5001C55.5294 34.2473 53.3818 30.075 51.6272 26.4705C51.4174 26.051 51.2076 25.6123 51.0169 25.1928C49.7392 22.4847 48.4042 17.4499 51.0169 14.4748C52.2184 13.1017 54.9166 12.4197 56.4995 12.0001C61.5152 10.6651 66.3119 9.99314 71.8235 9.688C72.6054 9.63079 73.3682 9.26844 73.3301 8.48652ZM37.3048 16.5001C37.6672 16.7862 39.8213 19.09 41.4995 26.4705C42.6438 31.4672 42.9995 36.5782 42.9995 38.123C42.9995 41.0218 40.2036 43.3866 37.3048 43.3866C36.3132 43.3866 35.3405 43.1005 34.5014 42.5856C35.2261 40.8501 35.6266 38.9239 35.6266 36.8833C35.6266 34.5757 35.1117 30.0368 34.2344 24.9449C35.741 18.9756 36.9806 16.7671 37.3048 16.5001ZM33.7195 50.7099C30.9733 51.7588 28.1889 52.8458 25.3854 54.1617V50.1568C28.5322 49.7182 31.2784 47.8301 33.1474 45.103C33.9865 45.5988 34.9019 45.9421 35.8745 46.1137V49.8707C35.1498 50.1568 34.4251 50.4429 33.7195 50.7099Z" fill="#C9A86C"/>
<path d="M78.5749 9.8216C79.3648 9.8216 80.0052 9.18122 80.0052 8.39127C80.0052 7.60132 79.3648 6.96094 78.5749 6.96094C77.7849 6.96094 77.1445 7.60132 77.1445 8.39127C77.1445 9.18122 77.7849 9.8216 78.5749 9.8216Z" fill="#C9A86C"/>
<path d="M33.2256 82.0479C40.0064 71.1986 42.7187 80.0136 48.8215 69.1643" stroke="#C9A86C" stroke-width="2" stroke-linecap="round"/>
</g>
</svg>
