<svg width="25" height="25" viewBox="0 0 25 25" fill="none" xmlns="http://www.w3.org/2000/svg">
<g clip-path="url(#clip0_186_1120)">
<path d="M16.1089 0.144387C15.9943 0.0236513 15.8371 -0.0488281 15.6742 -0.0488281H5.92175C4.12216 -0.0488281 2.63672 1.4307 2.63672 3.2301V21.6721C2.63672 23.4717 4.12216 24.9512 5.92175 24.9512H19.1584C20.958 24.9512 22.4434 23.4717 22.4434 21.6721V7.0284C22.4434 6.87143 22.3709 6.72056 22.2683 6.60573L16.1089 0.144387ZM16.284 2.08283L20.4085 6.41252H17.7273C16.9302 6.41252 16.284 5.77241 16.284 4.97533V2.08283ZM19.1584 23.7435H5.92175C4.7926 23.7435 3.84445 22.8075 3.84445 21.6721V3.2301C3.84445 2.10095 4.7865 1.15891 5.92175 1.15891H15.0763V4.97533C15.0763 6.44265 16.26 7.62025 17.7273 7.62025H21.2357V21.6721C21.2357 22.8075 20.2937 23.7435 19.1584 23.7435Z" fill="white"/>
<path d="M17.5103 19.5767H7.57066C7.23859 19.5767 6.9668 19.8483 6.9668 20.1805C6.9668 20.5126 7.23859 20.7844 7.57066 20.7844H17.5164C17.8484 20.7844 18.1202 20.5126 18.1202 20.1805C18.1202 19.8483 17.8484 19.5767 17.5103 19.5767Z" fill="white"/>
<path d="M12.0989 17.4091C12.2137 17.5298 12.3707 17.6023 12.5397 17.6023C12.7089 17.6023 12.8658 17.5298 12.9805 17.4091L16.5192 13.6108C16.7486 13.3692 16.7305 12.9827 16.489 12.7594C16.2474 12.5299 15.861 12.5478 15.6376 12.7895L13.1436 15.4646V8.87047C13.1436 8.53821 12.8718 8.2666 12.5397 8.2666C12.2076 8.2666 11.9358 8.53821 11.9358 8.87047V15.4646L9.44787 12.7895C9.21841 12.548 8.8379 12.5299 8.59643 12.7594C8.35495 12.9888 8.33683 13.3693 8.56629 13.6108L12.0989 17.4091Z" fill="white"/>
</g>
<defs>
<clipPath id="clip0_186_1120">
<rect width="25" height="25" fill="white"/>
</clipPath>
</defs>
</svg>
