<svg width="69" height="69" viewBox="0 0 69 69" fill="none" xmlns="http://www.w3.org/2000/svg">
<g clip-path="url(#clip0_287_220)">
<path d="M13 50.9349C13 51.4872 12.5523 51.9349 12 51.9349H11.8916C11.3393 51.9349 10.8916 51.4872 10.8916 50.9349V36.4C10.8916 36.1791 10.7125 36 10.4916 36L1.36914 36C0.816857 36 0.369141 35.5523 0.369141 35V31.8805C0.369141 31.5848 0.499997 31.3043 0.726556 31.1143L37.1844 0.538948C37.5561 0.227215 38.0979 0.227235 38.4696 0.538998L54.9527 14.3648C55.3424 14.6916 55.4108 15.2651 55.1089 15.6744C54.779 16.1217 54.14 16.1977 53.7144 15.8403L38.4683 3.03847C38.0972 2.7269 37.5562 2.72616 37.1843 3.03672L2.64361 31.8801C2.5526 31.9561 2.5 32.0685 2.5 32.1871V33.9101C2.5 34.131 2.67909 34.3101 2.9 34.3101H12C12.5523 34.3101 13 34.7578 13 35.3101V50.9349Z" fill="#C9A86C"/>
<path d="M21.7009 67.9999C21.7009 68.5522 21.2532 68.9999 20.7009 68.9999H11.3242C10.7719 68.9999 10.3242 68.5522 10.3242 67.9999V57.2011C10.3242 56.6488 10.7719 56.201 11.3242 56.201H20.7009C21.2532 56.201 21.7009 56.6488 21.7009 57.201V67.9999ZM12.5 67H19.5V58H12.5V67Z" fill="#C9A86C"/>
<path d="M37.3435 68C37.3435 68.5523 36.8958 69 36.3435 69H26.9668C26.4145 69 25.9668 68.5523 25.9668 68V44.4023C25.9668 43.8501 26.4145 43.4023 26.9668 43.4023H36.3435C36.8958 43.4023 37.3435 43.8501 37.3435 44.4023V68ZM28 66.7159L35.352 66.7159L35.352 45.5603L28 45.5L28 66.7159Z" fill="#C9A86C"/>
<path d="M52.9861 68C52.9861 68.5522 52.5383 69 51.9861 69H42.6094C42.0571 69 41.6094 68.5522 41.6094 68V31.6034C41.6094 31.0511 42.0571 30.6034 42.6094 30.6034H51.9861C52.5383 30.6034 52.9861 31.0511 52.9861 31.6034V68ZM43.5 67H51V32.7016H43.6107L43.5 67Z" fill="#C9A86C"/>
<path d="M68.6306 68C68.6306 68.5523 68.1829 69 67.6306 69H58.2539C57.7016 69 57.2539 68.5523 57.2539 68V18.8047C57.2539 18.2524 57.7016 17.8047 58.2539 17.8047H67.6306C68.1829 17.8047 68.6306 18.2524 68.6306 18.8047V68ZM59.5 67L66.5 67V20L59.5 20V67Z" fill="#C9A86C"/>
</g>
<defs>
<clipPath id="clip0_287_220">
<rect width="69" height="69" fill="white"/>
</clipPath>
</defs>
</svg>
