<svg width="45" height="46" viewBox="0 0 45 46" fill="none" xmlns="http://www.w3.org/2000/svg">
<g clip-path="url(#clip0_467_1313)">
<path d="M43.8973 40.2991H39.373C38.867 40.2991 38.4538 40.1894 38.0731 39.9543C36.7015 39.1053 35.6087 36.3866 34.9558 34.7622C34.8825 34.5799 34.809 34.3978 34.7348 34.2159C33.6605 31.5814 32.3236 28.3027 29.6677 26.6101C28.4786 25.8502 27.1269 25.465 25.6504 25.465H23.8729V17.9583C24.5045 17.9567 25.0975 17.7106 25.5426 17.2655C25.99 16.8198 26.2367 16.225 26.2373 15.5908C26.2379 14.9555 25.9915 14.3587 25.5427 13.9099L18.6024 6.96954C18.3445 6.71255 17.9271 6.71316 17.6702 6.97121C17.4132 7.22908 17.4139 7.64647 17.6719 7.90338L24.6114 14.8429C24.81 15.0416 24.9194 15.3068 24.919 15.5896C24.9188 15.8712 24.8098 16.1347 24.6114 16.3324C24.2007 16.7431 23.5326 16.7431 23.1219 16.3324L13.5847 6.79754C13.3273 6.54011 12.91 6.54011 12.6526 6.79754L3.11546 16.3324C2.917 16.5309 2.65228 16.6401 2.36988 16.6401H2.36883C2.08723 16.6399 1.82382 16.5309 1.62519 16.3316C1.42752 16.1347 1.31862 15.8712 1.31836 15.5896C1.3181 15.3068 1.42734 15.0416 1.62607 14.8429L12.3748 4.09385C12.5717 3.89627 12.8352 3.78729 13.1167 3.78702H13.1178C13.4002 3.78702 13.665 3.89627 13.8634 4.09473L17.6702 7.90171C17.9276 8.15914 18.345 8.15914 18.6024 7.90171C18.8598 7.64428 18.8598 7.22697 18.6024 6.96954L14.7956 3.16256C14.3481 2.71511 13.7523 2.46875 13.1178 2.46875H13.1155C12.4813 2.46937 11.8866 2.71599 11.4418 3.16256L0.693898 13.9107C0.245831 14.3588 -0.000614085 14.9554 1.14914e-06 15.5908C0.000616384 16.225 0.247325 16.8197 0.692931 17.2637C1.13792 17.7104 1.73136 17.9569 2.36435 17.9583V29.5697V43.7446H0.659181C0.295138 43.7446 1.14914e-06 44.0398 1.14914e-06 44.4038C1.14914e-06 44.7679 0.295138 45.063 0.659181 45.063H43.9247C44.5177 45.063 45 44.5817 45 43.9902V41.4016C45 40.7937 44.5054 40.2991 43.8973 40.2991ZM5.27678 43.7447H3.68271V30.2289H5.27678V43.7447ZM9.80868 43.7447H6.59514V30.2289H9.15733H9.80868V43.7447ZM15.1103 43.7447H11.127V41.6398H15.1103V43.7447ZM15.1103 40.3215H11.127V37.8379H15.1103V40.3215ZM15.1103 36.5195H11.127V34.0334H15.1103V36.5195ZM15.1103 32.7151H11.127V30.2289H15.1103V32.7151ZM16.4208 28.9106H9.81651V25.6432C9.81651 23.8224 11.2978 22.341 13.1186 22.341C14.9395 22.341 16.4208 23.8224 16.4208 25.6432V28.9106ZM19.6397 43.7447H16.4287V30.2289H17.08H19.6397V43.7447ZM17.7391 28.9106V25.6432C17.7391 23.0954 15.6664 21.0226 13.1186 21.0226C10.5709 21.0226 8.49815 23.0954 8.49815 25.6432V28.9106H5.93596H3.68271V17.5639C3.81261 17.4774 3.93486 17.3775 4.04763 17.2646L13.1186 8.19579L22.1896 17.2646C22.3024 17.3775 22.4247 17.4774 22.5546 17.564V28.9106H20.2989H17.7391ZM23.8729 43.7447V39.3811C23.8729 39.0171 23.5778 38.722 23.2138 38.722C22.8497 38.722 22.5546 39.0171 22.5546 39.3811V43.7447H20.958V30.2289H22.5546V40.3391C22.5546 40.7031 22.8497 40.9983 23.2138 40.9983C23.5778 40.9983 23.8729 40.7031 23.8729 40.3391V30.2289H25.6504C26.2168 30.2289 26.679 30.3553 27.1048 30.6264C28.5003 31.516 29.5395 34.0812 30.2271 35.7786C30.3122 35.9884 30.3974 36.1981 30.4827 36.4079C31.5035 38.9231 32.7616 42.0226 35.1743 43.7447H23.8729ZM43.6816 43.7447H39.373C38.2309 43.7447 37.1832 43.4551 36.2595 42.8843C33.9548 41.4569 32.7592 38.511 31.7043 35.912C31.6192 35.7026 31.5339 35.4931 31.449 35.2836C30.6984 33.4307 29.5641 30.6307 27.8132 29.5145C27.175 29.108 26.4676 28.9105 25.6504 28.9105H23.8729V26.7832H25.6504C26.8713 26.7832 27.9841 27.0986 28.9585 27.7213C31.2614 29.1889 32.4582 32.1239 33.5141 34.7135C33.5874 34.8934 33.6601 35.0734 33.7325 35.2537C34.492 37.1432 35.6396 39.9985 37.3797 41.0755C37.97 41.4401 38.622 41.6173 39.373 41.6173H43.6816V43.7447Z" fill="#C9A86C"/>
<path d="M13.1188 13.1973C11.5025 13.1973 10.1875 14.5123 10.1875 16.1287C10.1875 17.7451 11.5025 19.0601 13.1188 19.0601C14.7351 19.0601 16.0502 17.7451 16.0502 16.1287C16.0502 14.5123 14.7351 13.1973 13.1188 13.1973ZM13.1188 17.7417C12.2295 17.7417 11.5059 17.0181 11.5059 16.1287C11.5059 15.2392 12.2295 14.5156 13.1188 14.5156C14.0082 14.5156 14.7318 15.2392 14.7318 16.1287C14.7318 17.0181 14.0082 17.7417 13.1188 17.7417Z" fill="#C9A86C"/>
</g>
<defs>
<clipPath id="clip0_467_1313">
<rect width="45" height="45" fill="white" transform="translate(0 0.5)"/>
</clipPath>
</defs>
</svg>
