<svg width="45" height="46" viewBox="0 0 45 46" fill="none" xmlns="http://www.w3.org/2000/svg">
<g clip-path="url(#clip0_467_1298)">
<path d="M43.037 40.1374H41.2408V18.3215H43.0369C43.4379 18.3215 43.7627 17.9967 43.7627 17.5957V14.6177C43.7627 14.6129 43.762 14.6082 43.762 14.6033C43.7618 14.5877 43.761 14.5721 43.7597 14.5567C43.759 14.5482 43.7582 14.5398 43.7572 14.5315C43.7555 14.5175 43.7533 14.5037 43.7508 14.4899C43.7491 14.4809 43.7477 14.4717 43.7458 14.4628C43.743 14.4502 43.7396 14.4378 43.7362 14.4253C43.7336 14.4159 43.7314 14.4065 43.7285 14.3973C43.7238 14.3827 43.7183 14.3685 43.7126 14.3542C43.7067 14.3389 43.7001 14.3238 43.6931 14.3091C43.6885 14.2992 43.6841 14.2892 43.6789 14.2795C43.6739 14.27 43.6683 14.2608 43.6629 14.2517C43.6571 14.2417 43.6513 14.2318 43.645 14.2221C43.6395 14.2137 43.6337 14.2057 43.6279 14.1975C43.6206 14.1873 43.6133 14.1774 43.6055 14.1676C43.5998 14.1604 43.5941 14.1533 43.5881 14.1464C43.5793 14.1361 43.5702 14.1263 43.5609 14.1165C43.5551 14.1104 43.5493 14.1043 43.5434 14.0984C43.5332 14.0885 43.5225 14.079 43.5117 14.0697C43.5057 14.0645 43.4999 14.0591 43.4937 14.0541C43.4824 14.0449 43.4705 14.0363 43.4585 14.0278C43.4521 14.0232 43.4461 14.0185 43.4396 14.0142C43.4278 14.0063 43.4151 13.999 43.4026 13.9918C43.3836 13.9806 43.3641 13.9704 43.344 13.961C43.3379 13.9581 43.332 13.9549 43.3257 13.9521L43.3239 13.9514C43.3213 13.9503 43.319 13.9492 43.3164 13.9482L26.1079 6.48663V4.46918H28.0844C28.4263 4.46918 28.7221 4.23039 28.7939 3.89587C28.8658 3.56154 28.6945 3.22219 28.3826 3.08174L22.7978 0.564204C22.6083 0.478599 22.3909 0.478599 22.2013 0.564204L16.6166 3.08192C16.3046 3.22246 16.1333 3.56171 16.2052 3.89605C16.2771 4.23047 16.5728 4.46936 16.9148 4.46936H18.8913V6.48663L10.8436 9.97588C10.4757 10.1352 10.307 10.5627 10.4664 10.9305C10.6258 11.2982 11.053 11.4674 11.421 11.3076L18.6088 8.19118L14.7243 11.6334C14.4243 11.8993 14.3966 12.358 14.6624 12.658C14.8059 12.8198 15.0054 12.9024 15.2059 12.9024C15.3771 12.9024 15.5489 12.8422 15.6871 12.7197L21.3646 7.68853H23.6346L29.312 12.7197C29.6121 12.9855 30.0707 12.9577 30.3366 12.6578C30.6025 12.3577 30.5748 11.899 30.2748 11.6331L26.3904 8.191L39.5384 13.8917H5.4607L11.5774 11.2398C11.9453 11.0804 12.1142 10.6529 11.9546 10.2852C11.7951 9.91737 11.3678 9.7481 11 9.90806L1.68264 13.9476C1.68018 13.9486 1.67771 13.9497 1.67525 13.9507L1.67341 13.9515C1.66699 13.9543 1.66102 13.9577 1.65478 13.9606C1.63482 13.97 1.6154 13.98 1.59642 13.9912C1.58394 13.9985 1.57137 14.0057 1.55941 14.0136C1.55291 14.0178 1.54693 14.0227 1.54061 14.0272C1.52856 14.0357 1.5167 14.0443 1.50536 14.0535C1.49921 14.0585 1.49332 14.0639 1.48734 14.069C1.47653 14.0784 1.4659 14.0879 1.4557 14.0978C1.44973 14.1037 1.44393 14.1098 1.43813 14.1159C1.42881 14.1256 1.41976 14.1356 1.41097 14.1458C1.40499 14.1527 1.39928 14.1598 1.39356 14.1669C1.38583 14.1768 1.37836 14.1868 1.37115 14.1969C1.36535 14.205 1.35964 14.2132 1.35419 14.2215C1.34786 14.2312 1.34206 14.241 1.33626 14.2511C1.33081 14.2603 1.32536 14.2694 1.32026 14.2789C1.31517 14.2887 1.3106 14.2987 1.30594 14.3086C1.29926 14.3229 1.29284 14.3372 1.28704 14.3519C1.28124 14.3666 1.27553 14.3815 1.27069 14.3966C1.26779 14.4058 1.26551 14.4153 1.26296 14.4246C1.25953 14.437 1.2561 14.4494 1.25338 14.4621C1.25145 14.471 1.24986 14.4802 1.24828 14.4892C1.24582 14.503 1.24362 14.5168 1.24187 14.5308C1.2409 14.5392 1.24002 14.5475 1.23932 14.556C1.238 14.5714 1.23729 14.5869 1.23703 14.6026C1.23694 14.6075 1.23633 14.6122 1.23633 14.617V17.595C1.23633 17.996 1.56117 18.3208 1.96213 18.3208H3.75835V40.1367H1.96222C1.56126 40.1367 1.23642 40.4615 1.23642 40.8625V44.7736C1.23642 45.1746 1.56126 45.4994 1.96222 45.4994H28.2075C28.6084 45.4994 28.9333 45.1746 28.9333 44.7736C28.9333 44.3727 28.6084 44.0478 28.2075 44.0478H2.68802V41.5885H42.3111V44.0478H11.1125C10.7116 44.0478 10.3867 44.3727 10.3867 44.7736C10.3867 45.1746 10.7116 45.5 11.1125 45.5H43.037C43.438 45.5 43.7628 45.1751 43.7628 44.7742V40.8632C43.7628 40.4622 43.4379 40.1374 43.037 40.1374ZM24.6562 6.2371H23.9098H21.0892H20.3429V4.46918H24.6561L24.6562 6.2371ZM20.2908 3.01758L22.4995 2.02187L24.7082 3.01758H20.2908ZM2.68802 16.8698V15.3435H42.3111V16.8698H2.68802ZM39.789 18.3215V32.5655H30.0711V18.3215H39.789ZM7.48166 40.1374H5.21004V34.0172H7.48166V40.1374ZM11.2048 40.1374H8.93335V34.0172H11.2048V40.1374ZM14.9279 40.1374H12.6563V34.0172H14.9279V40.1374ZM14.9279 32.5657H5.21004V18.3215H14.9279V32.5657ZM28.6195 40.1375H16.3795V18.3215H28.6195V40.1375ZM32.3428 40.1374H30.0711V34.0172H32.3428V40.1374ZM36.066 40.1374H33.7944V34.0172H36.066V40.1374ZM39.7891 40.1374H37.5175V34.0172H39.7891V40.1374Z" fill="#C9A86C"/>
</g>
<defs>
<clipPath id="clip0_467_1298">
<rect width="45" height="45" fill="white" transform="translate(0 0.5)"/>
</clipPath>
</defs>
</svg>
