<svg width="45" height="46" viewBox="0 0 45 46" fill="none" xmlns="http://www.w3.org/2000/svg">
<g clip-path="url(#clip0_467_1254)">
<path d="M36.6217 0.5C32.7764 0.5 29.6586 3.61778 29.6586 7.46305V11.1524H13.1344V7.46305C13.1344 4.65704 15.4208 2.37067 18.2268 2.37067C21.0328 2.37067 23.3191 4.65704 23.3191 7.46305C23.3191 7.98268 23.7349 8.39838 24.2545 8.39838C24.7741 8.39838 25.1898 7.98268 25.1898 7.46305C25.1898 3.61778 22.072 0.5 18.2268 0.5C14.3815 0.5 11.2637 3.61778 11.2637 7.46305V31.1062C11.2118 31.6259 11.6794 32.0935 12.1991 32.0935C12.7187 32.0935 13.1344 31.6778 13.1344 31.1582V28.8199H29.7106V31.1582C29.7106 31.6778 30.1263 32.0935 30.6459 32.0935C31.1656 32.0935 31.5813 31.6778 31.5813 31.1582V7.46305C31.5813 4.65704 33.8676 2.37067 36.6737 2.37067C39.4797 2.37067 41.7141 4.65704 41.7141 7.46305C41.7141 7.98268 42.1298 8.39838 42.6494 8.39838C43.169 8.39838 43.5847 7.98268 43.5847 7.46305C43.5847 3.61778 40.467 0.5 36.6217 0.5ZM29.7106 26.8453H13.1344V23.5196H29.7106V26.8453ZM29.7106 21.649H13.1344V18.3233H29.7106V21.649ZM29.7106 16.3487H13.1344V13.0231H29.7106V16.3487Z" fill="#C9A86C"/>
<path d="M41.2471 35.7307C41.0393 35.263 40.4677 35.0032 40 35.263C35.3234 37.2896 33.037 36.3023 30.5947 35.263C28.1005 34.2238 25.5543 33.1326 21.0335 35.263C16.3568 37.2896 14.0705 36.3023 11.6282 35.263C9.13397 34.2238 6.53582 33.1326 2.01503 35.263C1.54737 35.4709 1.33951 36.0425 1.54737 36.5102C1.75522 36.9778 2.32681 37.1857 2.79448 36.9778C6.58778 35.2111 8.56238 36.0425 10.8488 37.0298C12.3557 37.6533 13.9665 38.3289 16.097 38.3289C17.6559 38.3289 19.4746 37.9651 21.761 36.9778C25.5543 35.2111 27.5289 36.0425 29.8153 37.0298C31.3222 37.6533 32.9331 38.3289 35.0635 38.3289C36.6224 38.3289 38.4411 37.9651 40.7275 36.9778C41.1952 36.77 41.455 36.1984 41.2471 35.7307Z" fill="#C9A86C"/>
<path d="M41.1964 42.9026C40.9885 42.4349 40.4169 42.1751 39.9492 42.4349C35.2726 44.4615 32.9862 43.4742 30.5439 42.4349C28.0497 41.3957 25.5035 40.3044 20.9827 42.4349C16.3061 44.4615 14.0197 43.4742 11.5774 42.4349C9.08319 41.3957 6.537 40.3044 1.96425 42.4349C1.49659 42.6428 1.28873 43.2144 1.49659 43.682C1.7564 44.1497 2.32799 44.3575 2.79566 44.1497C6.58896 42.383 8.56356 43.2144 10.8499 44.2017C12.3569 44.8252 13.9677 45.5007 16.0982 45.5007C17.6571 45.5007 19.4758 45.137 21.7622 44.1497C25.5555 42.383 27.5301 43.2144 29.8164 44.2017C31.3234 44.8252 32.9342 45.5007 35.0647 45.5007C36.6236 45.5007 38.4423 45.137 40.7287 44.1497C41.1964 43.9418 41.4562 43.3703 41.1964 42.9026Z" fill="#C9A86C"/>
</g>
<defs>
<clipPath id="clip0_467_1254">
<rect width="45" height="45" fill="white" transform="translate(0 0.5)"/>
</clipPath>
</defs>
</svg>
