<svg width="45" height="46" viewBox="0 0 45 46" fill="none" xmlns="http://www.w3.org/2000/svg">
<g clip-path="url(#clip0_467_1230)">
<path d="M22.568 19.543C16.2253 19.543 4.23047 20.4274 4.23047 23.7747C4.23047 27.122 16.2253 28.0064 22.568 28.0064C28.9107 28.0064 40.9055 27.122 40.9055 23.7747C40.9055 20.4274 28.9107 19.543 22.568 19.543ZM22.568 26.5959C11.3997 26.5959 5.64105 24.6211 5.64105 23.7747C5.64105 22.9284 11.3997 20.9535 22.568 20.9535C33.7362 20.9535 39.4949 22.9284 39.4949 23.7747C39.4949 24.6211 33.7362 26.5959 22.568 26.5959Z" fill="#C9A86C"/>
<path d="M22.569 16.7217C11.97 16.7217 0.705078 19.1902 0.705078 23.7746V37.8804C0.705078 42.4647 11.97 44.9332 22.569 44.9332C33.1681 44.9332 44.433 42.4647 44.433 37.8804V23.7746C44.433 19.1937 33.1681 16.7217 22.569 16.7217ZM2.11566 37.8804V26.4004C2.96657 27.0943 3.91776 27.6553 4.93681 28.0641V40.6239C3.1221 39.7635 2.11566 38.8036 2.11566 37.8804ZM38.7907 28.6037V41.2107C37.8665 41.5478 36.9247 41.8345 35.9695 42.0698V29.4119C36.9753 29.1721 37.9204 28.9027 38.7907 28.6037ZM34.559 42.3942C33.6745 42.5823 32.7341 42.7492 31.7378 42.895V30.1998C32.709 30.0587 33.6527 29.9014 34.559 29.7187V42.3942ZM30.3272 43.0797C29.424 43.1874 28.4836 43.277 27.5061 43.3485V30.6533C28.4596 30.5827 29.4026 30.496 30.3272 30.3874V43.0797ZM26.0955 43.4324C25.1814 43.4794 24.241 43.5071 23.2743 43.5156V30.8204C24.2145 30.8105 25.1575 30.7816 26.0955 30.733V43.4324ZM21.8638 43.5156C20.8984 43.5062 19.9581 43.4785 19.0426 43.4324V30.7351C19.9806 30.7837 20.9236 30.8126 21.8638 30.8225V43.5156ZM17.632 43.3463C16.6559 43.2758 15.7155 43.1862 14.8109 43.0776V30.3824C15.7355 30.491 16.6785 30.5799 17.632 30.6483V43.3463ZM13.4003 42.8928C12.4035 42.7471 11.4631 42.5802 10.5791 42.3921V29.7202C11.4854 29.9028 12.4291 30.0629 13.4003 30.2012V42.8928ZM9.16855 42.0698C8.21335 41.8345 7.27159 41.5478 6.34739 41.2107V28.6037C7.21772 28.9027 8.16281 29.1721 9.16855 29.4119V42.0698ZM40.2013 40.6239V28.0641C41.2203 27.6553 42.1715 27.0943 43.0224 26.4004V37.8804C43.0224 38.8036 42.016 39.7635 40.2013 40.6239ZM22.569 29.4169C10.5157 29.4169 2.11566 26.4434 2.11566 23.7746C2.11566 21.1058 10.5157 18.1323 22.569 18.1323C34.6224 18.1323 43.0224 21.1058 43.0224 23.7746C43.0224 26.4434 34.6224 29.4169 22.569 29.4169Z" fill="#C9A86C"/>
<path d="M13.3734 6.7732L14.4969 6.02419L13.7141 4.85059L12.5912 5.5996C12.2302 5.84026 11.927 6.15804 11.7037 6.53002C11.4803 6.902 11.3422 7.31892 11.2994 7.75071C11.2567 8.1825 11.3102 8.6184 11.4563 9.02698C11.6024 9.43556 11.8373 9.80664 12.1441 10.1135L12.9538 10.9245C13.1132 11.0838 13.2353 11.2765 13.3112 11.4888C13.3871 11.701 13.415 11.9274 13.3928 12.1517C13.3706 12.3759 13.2989 12.5925 13.1828 12.7857C13.0668 12.9789 12.9093 13.144 12.7217 13.2689L11.5982 14.0179L12.3811 15.1915L13.5039 14.4425C13.8649 14.2019 14.1681 13.8841 14.3915 13.5121C14.6149 13.1401 14.7529 12.7232 14.7957 12.2914C14.8385 11.8596 14.7849 11.4237 14.6388 11.0151C14.4928 10.6066 14.2579 10.2355 13.951 9.92867L13.1414 9.11759C12.9819 8.95828 12.8599 8.76557 12.7839 8.55336C12.708 8.34116 12.6802 8.11474 12.7024 7.89046C12.7246 7.66618 12.7963 7.44962 12.9123 7.25641C13.0284 7.0632 13.1858 6.89816 13.3734 6.7732Z" fill="#C9A86C"/>
<path d="M22.5414 3.24684L23.6649 2.49782L22.882 1.32422L21.7592 2.07324C21.3982 2.31389 21.095 2.63167 20.8716 3.00365C20.6482 3.37563 20.5102 3.79255 20.4674 4.22434C20.4246 4.65613 20.4782 5.09203 20.6243 5.50061C20.7703 5.90919 21.0052 6.28027 21.3121 6.58709L22.1217 7.39817C22.2812 7.55747 22.4032 7.75018 22.4792 7.96239C22.5551 8.1746 22.5829 8.40101 22.5607 8.6253C22.5385 8.84958 22.4668 9.06614 22.3508 9.25934C22.2347 9.45255 22.0773 9.61759 21.8897 9.74255L20.7662 10.4916L21.549 11.6652L22.6719 10.9162C23.0329 10.6755 23.3361 10.3577 23.5594 9.98574C23.7828 9.61375 23.9209 9.19684 23.9637 8.76505C24.0064 8.33326 23.9529 7.89736 23.8068 7.48878C23.6607 7.08019 23.4258 6.70912 23.119 6.4023L22.3093 5.59122C22.1499 5.43191 22.0278 5.2392 21.9519 5.027C21.876 4.81479 21.8481 4.58838 21.8703 4.36409C21.8925 4.13981 21.9642 3.92325 22.0803 3.73004C22.1963 3.53684 22.3538 3.3718 22.5414 3.24684Z" fill="#C9A86C"/>
<path d="M32.4164 6.7732L33.5399 6.02419L32.757 4.85059L31.6342 5.5996C31.2732 5.84026 30.97 6.15804 30.7466 6.53002C30.5232 6.902 30.3852 7.31892 30.3424 7.75071C30.2996 8.1825 30.3532 8.6184 30.4993 9.02698C30.6453 9.43556 30.8802 9.80664 31.1871 10.1135L31.9967 10.9245C32.1562 11.0838 32.2782 11.2765 32.3542 11.4888C32.4301 11.701 32.4579 11.9274 32.4357 12.1517C32.4135 12.3759 32.3418 12.5925 32.2258 12.7857C32.1097 12.9789 31.9523 13.144 31.7647 13.2689L30.6412 14.0179L31.424 15.1915L32.5469 14.4425C32.9079 14.2019 33.2111 13.8841 33.4344 13.5121C33.6578 13.1401 33.7959 12.7232 33.8387 12.2914C33.8814 11.8596 33.8279 11.4237 33.6818 11.0151C33.5357 10.6066 33.3008 10.2355 32.994 9.92867L32.1843 9.11759C32.0249 8.95828 31.9028 8.76557 31.8269 8.55336C31.751 8.34116 31.7231 8.11474 31.7453 7.89046C31.7675 7.66618 31.8392 7.44962 31.9553 7.25641C32.0713 7.0632 32.2288 6.89816 32.4164 6.7732Z" fill="#C9A86C"/>
</g>
<defs>
<clipPath id="clip0_467_1230">
<rect width="45" height="45" fill="white" transform="translate(0 0.5)"/>
</clipPath>
</defs>
</svg>
