<svg width="47" height="44" viewBox="0 0 47 44" fill="none" xmlns="http://www.w3.org/2000/svg">
<path d="M16.7468 0.95752H41.438V12.3937C41.438 12.3937 32.6551 7.81922 23.5061 7.81922C14.3572 7.81922 5.57422 12.3937 5.57422 12.3937V0.95752H28.4957" stroke="#C9A86C" stroke-width="1.2" stroke-miterlimit="10" stroke-linecap="round" stroke-linejoin="round"/>
<path d="M46.0122 38.9258H40.3398V43.0428H46.0122V38.9258Z" stroke="#C9A86C" stroke-width="1.2" stroke-miterlimit="10" stroke-linecap="round" stroke-linejoin="round"/>
<path d="M29.1782 38.9258H23.5059V43.0428H29.1782V38.9258Z" stroke="#C9A86C" stroke-width="1.2" stroke-miterlimit="10" stroke-linecap="round" stroke-linejoin="round"/>
<path d="M34.852 38.9258H29.1797V43.0428H34.852V38.9258Z" stroke="#C9A86C" stroke-width="1.2" stroke-miterlimit="10" stroke-linecap="round" stroke-linejoin="round"/>
<path d="M40.3409 38.9258H34.8516V43.0428H40.3409V38.9258Z" stroke="#C9A86C" stroke-width="1.2" stroke-miterlimit="10" stroke-linecap="round" stroke-linejoin="round"/>
<path d="M26.3423 18.3403H20.6699V22.4574H26.3423V18.3403Z" stroke="#C9A86C" stroke-width="1.2" stroke-miterlimit="10" stroke-linecap="round" stroke-linejoin="round"/>
<path d="M14.9985 18.3403H9.32617V22.4574H14.9985V18.3403Z" stroke="#C9A86C" stroke-width="1.2" stroke-miterlimit="10" stroke-linecap="round" stroke-linejoin="round"/>
<path d="M37.688 18.3403H32.0156V22.4574H37.688V18.3403Z" stroke="#C9A86C" stroke-width="1.2" stroke-miterlimit="10" stroke-linecap="round" stroke-linejoin="round"/>
<path d="M46.012 0.95752H41.4375V5.07454H46.012V0.95752Z" stroke="#C9A86C" stroke-width="1.2" stroke-miterlimit="10" stroke-linecap="round" stroke-linejoin="round"/>
<path d="M18.5315 8.2289C16.1985 8.5976 14.0028 9.17124 12.1053 9.7769L11.2188 6.41009C13.0632 5.78247 15.2479 5.15943 17.6001 4.72852L18.5315 8.2289Z" stroke="#C9A86C" stroke-width="1.2" stroke-miterlimit="10" stroke-linecap="round" stroke-linejoin="round"/>
<path d="M35.7952 6.41009L34.9086 9.7769C33.0111 9.17124 30.8154 8.5976 28.4824 8.2289L29.4138 4.72852C31.766 5.15943 33.9507 5.78247 35.7952 6.41009Z" stroke="#C9A86C" stroke-width="1.2" stroke-miterlimit="10" stroke-linecap="round" stroke-linejoin="round"/>
<path d="M5.57447 0.95752H1V5.07454H5.57447V0.95752Z" stroke="#C9A86C" stroke-width="1.2" stroke-miterlimit="10" stroke-linecap="round" stroke-linejoin="round"/>
<path d="M32.0141 26.5742H26.3418V30.6912H32.0141V26.5742Z" stroke="#C9A86C" stroke-width="1.2" stroke-miterlimit="10" stroke-linecap="round" stroke-linejoin="round"/>
<path d="M0.999534 43.0425L6.67188 43.0425L6.67188 38.9255L0.999534 38.9255L0.999534 43.0425Z" stroke="#C9A86C" stroke-width="1.2" stroke-miterlimit="10" stroke-linecap="round" stroke-linejoin="round"/>
<path d="M17.8335 43.0425L23.5059 43.0425L23.5059 38.9255L17.8335 38.9255L17.8335 43.0425Z" stroke="#C9A86C" stroke-width="1.2" stroke-miterlimit="10" stroke-linecap="round" stroke-linejoin="round"/>
<path d="M12.1616 43.0425L17.834 43.0425L17.834 38.9255L12.1616 38.9255L12.1616 43.0425Z" stroke="#C9A86C" stroke-width="1.2" stroke-miterlimit="10" stroke-linecap="round" stroke-linejoin="round"/>
<path d="M6.67275 43.0425L12.1621 43.0425L12.1621 38.9255L6.67275 38.9255L6.67275 43.0425Z" stroke="#C9A86C" stroke-width="1.2" stroke-miterlimit="10" stroke-linecap="round" stroke-linejoin="round"/>
<path d="M20.6695 30.6914L26.3418 30.6914L26.3418 26.5744L20.6695 26.5744L20.6695 30.6914Z" stroke="#C9A86C" stroke-width="1.2" stroke-miterlimit="10" stroke-linecap="round" stroke-linejoin="round"/>
<path d="M14.9976 30.6914L20.6699 30.6914L20.6699 26.5744L14.9976 26.5744L14.9976 30.6914Z" stroke="#C9A86C" stroke-width="1.2" stroke-miterlimit="10" stroke-linecap="round" stroke-linejoin="round"/>
<path d="M29.1782 30.6914H23.5059V34.8084H29.1782V30.6914Z" stroke="#C9A86C" stroke-width="1.2" stroke-miterlimit="10" stroke-linecap="round" stroke-linejoin="round"/>
<path d="M34.852 30.6914H29.1797V34.8084H34.852V30.6914Z" stroke="#C9A86C" stroke-width="1.2" stroke-miterlimit="10" stroke-linecap="round" stroke-linejoin="round"/>
<path d="M17.8335 34.8086L23.5059 34.8086L23.5059 30.6916L17.8335 30.6916L17.8335 34.8086Z" stroke="#C9A86C" stroke-width="1.2" stroke-miterlimit="10" stroke-linecap="round" stroke-linejoin="round"/>
<path d="M12.1616 34.8086L17.834 34.8086L17.834 30.6916L12.1616 30.6916L12.1616 34.8086Z" stroke="#C9A86C" stroke-width="1.2" stroke-miterlimit="10" stroke-linecap="round" stroke-linejoin="round"/>
<path d="M29.1782 34.8086H23.5059V38.9256H29.1782V34.8086Z" stroke="#C9A86C" stroke-width="1.2" stroke-miterlimit="10" stroke-linecap="round" stroke-linejoin="round"/>
<path d="M34.852 34.8086H29.1797V38.9256H34.852V34.8086Z" stroke="#C9A86C" stroke-width="1.2" stroke-miterlimit="10" stroke-linecap="round" stroke-linejoin="round"/>
<path d="M40.5239 34.8086H34.8516V38.9256H40.5239V34.8086Z" stroke="#C9A86C" stroke-width="1.2" stroke-miterlimit="10" stroke-linecap="round" stroke-linejoin="round"/>
<path d="M17.8335 38.9258L23.5059 38.9258L23.5059 34.8088L17.8335 34.8088L17.8335 38.9258Z" stroke="#C9A86C" stroke-width="1.2" stroke-miterlimit="10" stroke-linecap="round" stroke-linejoin="round"/>
<path d="M12.1616 38.9258L17.834 38.9258L17.834 34.8088L12.1616 34.8088L12.1616 38.9258Z" stroke="#C9A86C" stroke-width="1.2" stroke-miterlimit="10" stroke-linecap="round" stroke-linejoin="round"/>
<path d="M6.48977 38.9258L12.1621 38.9258L12.1621 34.8088L6.48977 34.8088L6.48977 38.9258Z" stroke="#C9A86C" stroke-width="1.2" stroke-miterlimit="10" stroke-linecap="round" stroke-linejoin="round"/>
</svg>
