<svg width="45" height="46" viewBox="0 0 45 46" fill="none" xmlns="http://www.w3.org/2000/svg">
<g clip-path="url(#clip0_467_1341)">
<path d="M37.2302 27.4356C35.1025 26.56 32.5884 25.8715 29.8164 25.4277" stroke="#C9A86C" stroke-width="1.31836" stroke-miterlimit="10" stroke-linecap="round" stroke-linejoin="round"/>
<path d="M15.1775 25.4277C6.71543 26.7822 0.65625 30.4181 0.65625 34.6915C0.65625 40.1205 10.4347 44.5216 22.4971 44.5216C34.5594 44.5216 44.3379 40.1205 44.3379 34.6915C44.3379 32.484 42.721 30.4467 39.9913 28.8061" stroke="#C9A86C" stroke-width="1.31836" stroke-miterlimit="10" stroke-linecap="round" stroke-linejoin="round"/>
<path d="M17.3659 29.8125C12.0375 30.5325 8.25781 32.3406 8.25781 34.4576C8.25781 37.0254 13.8184 39.1388 20.9591 39.407" stroke="#C9A86C" stroke-width="1.31836" stroke-miterlimit="10" stroke-linecap="round" stroke-linejoin="round"/>
<path d="M24.0352 39.407C31.1758 39.1388 36.7364 37.0253 36.7364 34.4576C36.7364 32.3406 32.9568 30.5326 27.6284 29.8125" stroke="#C9A86C" stroke-width="1.31836" stroke-miterlimit="10" stroke-linecap="round" stroke-linejoin="round"/>
<path d="M16.2871 34.4581C18.9412 34.4581 21.2569 32.8489 22.4968 30.459C23.7366 32.8489 26.0523 34.4581 28.7064 34.4581" stroke="#C9A86C" stroke-width="1.31836" stroke-miterlimit="10" stroke-linecap="round" stroke-linejoin="round"/>
<path d="M19.1303 18.3108L18.5898 19.2471C16.853 22.2553 19.024 26.0155 22.4976 26.0155C25.9712 26.0155 28.1422 22.2553 26.4054 19.2471L22.7259 12.874C22.6244 12.6982 22.3708 12.6982 22.2692 12.874L20.6684 15.6468" stroke="#C9A86C" stroke-width="1.31836" stroke-miterlimit="10" stroke-linecap="round" stroke-linejoin="round"/>
<path d="M22.4963 5.44383C23.5902 5.44383 24.477 4.55704 24.477 3.46312C24.477 2.36921 23.5902 1.48242 22.4963 1.48242C21.4024 1.48242 20.5156 2.36921 20.5156 3.46312C20.5156 4.55704 21.4024 5.44383 22.4963 5.44383Z" stroke="#C9A86C" stroke-width="1.31836" stroke-miterlimit="10" stroke-linecap="round" stroke-linejoin="round"/>
<path d="M22.4961 9.29893V8.76367" stroke="#C9A86C" stroke-width="1.31836" stroke-miterlimit="10" stroke-linecap="round" stroke-linejoin="round"/>
<path d="M28.707 13.8498C28.707 12.756 29.5938 11.8691 30.6877 11.8691C31.7816 11.8691 32.6684 12.7559 32.6684 13.8498C32.6684 14.9437 31.7816 15.8305 30.6877 15.8305" stroke="#C9A86C" stroke-width="1.31836" stroke-miterlimit="10" stroke-linecap="round" stroke-linejoin="round"/>
<path d="M12.7541 21.7192C11.6603 21.7192 10.7734 20.8324 10.7734 19.7385C10.7734 18.6446 11.6603 17.7578 12.7541 17.7578C13.848 17.7578 14.7348 18.6446 14.7348 19.7385" stroke="#C9A86C" stroke-width="1.31836" stroke-miterlimit="10" stroke-linecap="round" stroke-linejoin="round"/>
</g>
<defs>
<clipPath id="clip0_467_1341">
<rect width="45" height="45" fill="white" transform="translate(0 0.5)"/>
</clipPath>
</defs>
</svg>
