<svg width="45" height="46" viewBox="0 0 45 46" fill="none" xmlns="http://www.w3.org/2000/svg">
<g clip-path="url(#clip0_485_400)">
<path d="M44.3408 41.3867H41.8013C42.3887 40.5843 42.6307 39.5667 42.4436 38.5566C42.3423 38.0118 42.1223 37.5109 41.8116 37.0797C42.3684 36.9513 42.902 36.6989 43.3696 36.3247C43.6343 36.1129 43.7891 35.7967 43.7946 35.4578C43.8001 35.1186 43.6555 34.7976 43.3977 34.5772L37.2965 29.3611C36.8475 28.9769 36.5107 28.4781 36.3229 27.9178L34.8974 23.6612L34.896 23.6571L33.6123 19.8253C33.0304 18.0877 31.6393 16.7227 29.8911 16.1737L25.4704 14.7853C26.6707 13.939 27.4569 12.5427 27.4569 10.9655V7.89723C27.4569 5.32059 25.3606 3.22461 22.7843 3.22461C20.208 3.22461 18.1116 5.32059 18.1116 7.89723V10.9659C18.1116 12.4703 18.8271 13.8103 19.935 14.6652C19.8204 14.6967 19.706 14.73 19.5921 14.7657L15.1089 16.1737C13.3607 16.7227 11.9696 18.0877 11.3877 19.8253L8.6768 27.9178C8.489 28.4781 8.15254 28.9772 7.70348 29.3611L1.60229 34.5775C1.34445 34.7979 1.19991 35.1186 1.20541 35.4578C1.2109 35.797 1.36574 36.1129 1.63044 36.3247C2.11933 36.7161 2.67998 36.9743 3.26431 37.0965C2.71259 38.1117 2.60788 39.3497 3.03326 40.472C3.16235 40.8116 3.33229 41.1175 3.53691 41.387H0.65918C0.294914 41.387 0 41.6819 0 42.0462C0 42.4101 0.294914 42.7054 0.65918 42.7054H40.1125H40.1138H44.3408C44.7051 42.7054 45 42.4101 45 42.0462C45 41.6819 44.7047 41.3867 44.3408 41.3867ZM29.3393 26.0092L31.6674 31.8021C31.6805 31.8344 31.6959 31.8656 31.7138 31.8955C32.1257 32.5815 32.7125 33.1497 33.4111 33.5393L34.1829 33.9695L29.3393 32.4905V26.0092ZM36.4396 30.3632L42.3643 35.4283C41.5699 35.9591 40.5471 36.0061 39.7008 35.5357L34.0532 32.3878C33.5701 32.1187 33.1619 31.729 32.8701 31.2597L30.795 26.0961L33.8726 24.7527L35.0728 28.3363C35.3365 29.1232 35.8092 29.8239 36.4396 30.3632ZM19.43 10.9659V7.89723C19.43 6.04775 20.9348 4.54297 22.7843 4.54297C24.6338 4.54297 26.1385 6.04775 26.1385 7.89723V10.9659C26.1385 12.8153 24.6338 14.3201 22.7843 14.3201C20.9348 14.3201 19.43 12.8153 19.43 10.9659ZM15.5038 17.4313L19.9872 16.0237C21.6311 15.5073 23.3689 15.5073 25.0128 16.0237L29.4962 17.4313C30.8427 17.8543 31.9143 18.9055 32.3623 20.2441L33.4523 23.4978L30.303 24.8721L29.2916 22.3556C29.1739 22.0627 28.8652 21.8942 28.5548 21.9542C28.2448 22.0143 28.021 22.2859 28.021 22.6014V32.3192H16.979V22.6014C16.979 22.2859 16.7552 22.0143 16.4452 21.9542C16.1358 21.8942 15.8261 22.0627 15.7084 22.3556L14.8329 24.5336L11.7221 22.978L12.6377 20.2441C13.0857 18.9055 14.1573 17.8543 15.5038 17.4313ZM8.56007 30.3632C9.19075 29.8239 9.66351 29.1232 9.92683 28.3363L11.2988 24.2404L14.3396 25.761L12.602 30.0841C12.4664 30.422 12.6302 30.8058 12.968 30.9417C13.3055 31.0774 13.6897 30.9136 13.8253 30.5758L15.6607 26.0096V32.4884L10.9122 33.9166L11.5885 33.5393C12.2872 33.15 12.8743 32.5818 13.2862 31.8958C13.3041 31.866 13.3195 31.8347 13.3326 31.8021L13.8253 30.5758C13.9612 30.2379 13.7975 29.8541 13.4596 29.7185C13.1218 29.5825 12.738 29.7463 12.602 30.0841L12.1296 31.2597C11.8378 31.7293 11.4299 32.1187 10.9468 32.3878L5.29987 35.5354C4.4529 36.0061 3.43048 35.9591 2.63569 35.4283L8.56007 30.3632ZM6.29997 41.3867H6.29757C5.3397 41.3867 4.59949 40.883 4.26613 40.0044C3.88916 39.0102 4.14734 37.8381 4.89132 37.1037L16.4167 33.6375H28.582L39.5237 36.9787C40.3775 37.2393 40.9845 37.9191 41.1472 38.797C41.31 39.6748 40.9872 40.527 40.2834 41.0763L39.8862 41.387H25.9658C25.8807 40.9249 25.6754 40.3103 25.1896 39.7634L26.5028 39.691C26.8664 39.6711 27.1448 39.36 27.1246 38.9964C27.1046 38.6332 26.7936 38.3551 26.4304 38.3747L22.8577 38.5721C22.7067 38.545 22.5491 38.5223 22.3836 38.5055L12.2168 37.4436C11.8522 37.4055 11.5305 37.6688 11.4927 38.0307C11.455 38.3929 11.7179 38.717 12.0798 38.7547L22.2473 39.8166C22.4011 39.8324 22.5457 39.8541 22.6809 39.8801C22.6837 39.8808 22.6868 39.8812 22.6895 39.8819C24.0055 40.14 24.4683 40.8562 24.6279 41.3867H6.29997Z" fill="#C9A86C"/>
<path d="M24.0357 39.8795C24.0477 39.8795 24.0601 39.8795 24.0724 39.8788L34.3674 39.2571C34.7306 39.2368 35.009 38.9261 34.9891 38.5625C34.9692 38.1989 34.6578 37.9202 34.2946 37.9408L24 38.5625C23.6364 38.5824 23.358 38.8935 23.3779 39.2567C23.3975 39.6079 23.6879 39.8795 24.0357 39.8795Z" fill="#C9A86C"/>
</g>
<defs>
<clipPath id="clip0_485_400">
<rect width="45" height="45" fill="white" transform="translate(0 0.5)"/>
</clipPath>
</defs>
</svg>
