<svg width="45" height="46" viewBox="0 0 45 46" fill="none" xmlns="http://www.w3.org/2000/svg">
<g clip-path="url(#clip0_467_1279)">
<path d="M42.5032 26.1232H40.9805L33.5469 19.7185C32.7881 19.0648 31.8279 18.7644 30.8806 18.8341L27.8903 14.2586C27.526 13.7014 26.9661 13.322 26.3134 13.1905C25.6611 13.0587 24.9978 13.1912 24.4464 13.5634L21.7231 15.3998C21.4251 15.601 21.0454 15.6481 20.7073 15.5258L18.7609 14.8227C17.9771 14.5398 17.1113 14.6692 16.4449 15.1688C16.1493 15.3902 16.0895 15.8091 16.311 16.1043C16.5324 16.3999 16.9266 16.3944 17.2465 16.2382C17.5518 16.0096 17.9483 15.9505 18.3071 16.08L20.253 16.7831C20.9908 17.0495 21.8196 16.9469 22.4706 16.5081L25.1938 14.6716C25.4465 14.501 25.7503 14.4406 26.049 14.5007C26.3481 14.5611 26.6049 14.7348 26.7717 14.9903L27.2575 15.7339L24.6311 16.5215C24.2775 16.6276 24.077 17.0001 24.1831 17.3537C24.2892 17.7073 24.6617 17.9078 25.0149 17.8017L26.8455 17.2528L26.3402 18.0953C26.1503 18.4118 26.253 18.8221 26.5695 19.012C26.677 19.0768 26.7958 19.1074 26.9125 19.1074C27.1398 19.1074 27.3612 18.9917 27.4865 18.7826L28.3304 17.3757L29.5255 19.2042C29.4208 19.2557 29.3178 19.312 29.2169 19.3742L23.8538 22.6811L22.3168 20.4443C21.4142 19.1311 19.6824 18.7222 18.2878 19.4929L16.689 20.3767C16.276 20.6046 15.7809 20.6558 15.3305 20.5164L14.6472 20.3053L17.2465 16.2382C17.4402 15.9241 17.3423 15.5124 17.0282 15.3188C16.714 15.1248 16.3021 15.2227 16.1088 15.5372L13.3285 19.8977L11.8656 19.4456C10.4292 19.0017 8.89175 19.6519 8.21025 20.9926L5.60099 26.1232H2.497C1.12027 26.1232 0 27.2435 0 28.6202V31.3579C0 32.735 1.12027 33.8549 2.497 33.8549H4.18066V44.6401C4.18066 45.0091 4.48004 45.3085 4.84911 45.3085H40.1507C40.5198 45.3085 40.8192 45.0091 40.8192 44.6401V33.8549H42.5028C43.8799 33.8549 44.9998 32.735 44.9998 31.3579V28.6202C45.0002 27.2435 43.8799 26.1232 42.5032 26.1232ZM26.8881 22.3803V23.7807C26.8881 24.1498 27.1875 24.4492 27.5566 24.4492C27.9256 24.4492 28.225 24.1498 28.225 23.7807V22.164L30.9654 23.2414C31.3088 23.3766 31.6967 23.2074 31.832 22.864C31.9669 22.5204 31.798 22.1324 31.4543 21.9975L29.0452 21.0503L29.9183 20.5119C30.7907 19.9743 31.8979 20.0622 32.6742 20.731L38.9326 26.1232H26.2197L24.6119 23.7838L26.8881 22.3803ZM9.40159 21.5982C9.78748 20.8395 10.6578 20.4714 11.4711 20.7227L14.9356 21.7936C15.7315 22.0397 16.6062 21.9494 17.3355 21.5467L18.9343 20.663C19.724 20.2266 20.7042 20.4584 21.215 21.2017L24.5978 26.1232H21.6682L20.6784 23.7553C20.5363 23.4147 20.1445 23.2541 19.8043 23.3962C19.4637 23.5387 19.3031 23.9301 19.4452 24.2706L20.2194 26.1232H13.9623L13.9026 24.9346L15.6477 24.2916C15.9941 24.1639 16.1716 23.7797 16.0439 23.4336C15.9162 23.0872 15.532 22.9097 15.1859 23.0374L13.2643 23.7454L10.9757 22.4974C10.6516 22.3206 10.2458 22.44 10.069 22.7638C9.8922 23.0879 10.0117 23.494 10.3358 23.6709L12.5619 24.8849L12.6237 26.1232H7.10063L9.40159 21.5982ZM5.51756 43.972V41.4945H37.6609C38.03 41.4945 38.3294 41.1952 38.3294 40.8261C38.3294 40.457 38.03 40.1576 37.6609 40.1576H5.51756V37.6692H39.4826V40.1576H36.2059C35.8369 40.1576 35.5375 40.457 35.5375 40.8261C35.5375 41.1952 35.8369 41.4945 36.2059 41.4945H39.4826V43.972H5.51756ZM39.4826 36.3327H5.51756V33.8549H39.4826V36.3327ZM43.6636 31.3579C43.6636 31.9978 43.1428 32.5183 42.5032 32.5183H2.497C1.85704 32.5183 1.33656 31.9978 1.33656 31.3579V28.6202C1.33656 27.9803 1.85738 27.4598 2.497 27.4598H42.5032C43.1428 27.4598 43.6636 27.9806 43.6636 28.6202V31.3579Z" fill="#C9A86C"/>
<path d="M13.5164 9.81566C12.9808 10.3001 12.3145 10.9026 12.3145 12.0874C12.3145 12.4565 12.6135 12.7559 12.9826 12.7559C13.3516 12.7559 13.651 12.4565 13.651 12.0874C13.651 11.5227 13.9123 11.26 14.4129 10.8072C14.9488 10.3228 15.6152 9.72022 15.6152 8.53541C15.6152 7.3506 14.9488 6.74806 14.4129 6.26363C13.9123 5.81079 13.651 5.54849 13.651 4.98338C13.651 4.41861 13.9123 4.15597 14.4129 3.70346C14.9488 3.21903 15.6155 2.6165 15.6155 1.43169C15.6155 1.06262 15.3161 0.76358 14.9471 0.76358C14.578 0.76358 14.2786 1.06262 14.2786 1.43169C14.2786 1.9968 14.0173 2.2591 13.5168 2.71194C12.9812 3.19603 12.3145 3.79857 12.3145 4.98338C12.3145 6.16819 12.9808 6.77072 13.5164 7.25515C14.0173 7.708 14.2786 7.97064 14.2786 8.53541C14.2786 9.10052 14.0173 9.36282 13.5164 9.81566Z" fill="#C9A86C"/>
<path d="M22.0519 9.81566C21.5163 10.3001 20.8496 10.9026 20.8496 12.0874C20.8496 12.4565 21.149 12.7559 21.5181 12.7559C21.8871 12.7559 22.1865 12.4565 22.1865 12.0874C22.1865 11.5227 22.4478 11.26 22.9483 10.8072C23.4839 10.3228 24.1507 9.72022 24.1507 8.53541C24.1507 7.3506 23.4843 6.74806 22.9483 6.26363C22.4478 5.81079 22.1865 5.54849 22.1865 4.98338C22.1865 4.41861 22.4478 4.15597 22.9483 3.70346C23.4843 3.21903 24.1507 2.6165 24.1507 1.43169C24.1507 1.06262 23.8516 0.76358 23.4826 0.76358C23.1135 0.76358 22.8141 1.06262 22.8141 1.43169C22.8141 1.99646 22.5528 2.2591 22.0519 2.71194C21.5163 3.19603 20.8496 3.79857 20.8496 4.98338C20.8496 6.16819 21.5163 6.77072 22.0519 7.25515C22.5528 7.708 22.8141 7.97064 22.8141 8.53541C22.8141 9.10052 22.5528 9.36282 22.0519 9.81566Z" fill="#C9A86C"/>
<path d="M30.5871 9.81566C30.0515 10.3001 29.3848 10.9026 29.3848 12.0874C29.3848 12.4565 29.6838 12.7559 30.0529 12.7559C30.4219 12.7559 30.7213 12.4565 30.7213 12.0874C30.7213 11.5227 30.9826 11.26 31.4835 10.8072C32.0191 10.3228 32.6858 9.72022 32.6858 8.53541C32.6858 7.3506 32.0191 6.74806 31.4835 6.26363C30.9826 5.81079 30.7213 5.54849 30.7213 4.98338C30.7213 4.41861 30.9826 4.15597 31.4835 3.70346C32.0191 3.21903 32.6858 2.6165 32.6858 1.43169C32.6858 1.06262 32.3864 0.76358 32.0174 0.76358C31.6483 0.76358 31.3489 1.06262 31.3489 1.43169C31.3489 1.99646 31.0877 2.2591 30.5871 2.71194C30.0512 3.19603 29.3848 3.79857 29.3848 4.98338C29.3848 6.16819 30.0512 6.77072 30.5871 7.25515C31.0877 7.708 31.3489 7.97064 31.3489 8.53541C31.3489 9.10052 31.0877 9.36282 30.5871 9.81566Z" fill="#C9A86C"/>
</g>
<defs>
<clipPath id="clip0_467_1279">
<rect width="45" height="45" fill="white" transform="translate(0 0.5)"/>
</clipPath>
</defs>
</svg>
