<svg width="45" height="46" viewBox="0 0 45 46" fill="none" xmlns="http://www.w3.org/2000/svg">
<g clip-path="url(#clip0_485_435)">
<path d="M44.1211 38.1319V44.6211H40.6055V1.37891H44.1211V40.207" stroke="#C9A86C" stroke-width="1.2" stroke-miterlimit="10" stroke-linecap="round" stroke-linejoin="round"/>
<path d="M4.39453 1.37891H0.878906V44.6211H4.39453V1.37891Z" stroke="#C9A86C" stroke-width="1.2" stroke-miterlimit="10" stroke-linecap="round" stroke-linejoin="round"/>
<path d="M4.39453 4.89453H0.878906V8.41016H4.39453V4.89453Z" stroke="#C9A86C" stroke-width="1.2" stroke-miterlimit="10" stroke-linecap="round" stroke-linejoin="round"/>
<path d="M44.1211 8.41016H40.6055V11.9258H44.1211V8.41016Z" stroke="#C9A86C" stroke-width="1.2" stroke-miterlimit="10" stroke-linecap="round" stroke-linejoin="round"/>
<path d="M40.6055 25.8564L44.1211 25.8564L44.1211 22.3408L40.6055 22.3408L40.6055 25.8564Z" stroke="#C9A86C" stroke-width="1.2" stroke-miterlimit="10" stroke-linecap="round" stroke-linejoin="round"/>
<path d="M0.878906 29.3721L4.39453 29.3721L4.39453 25.8564L0.878906 25.8564L0.878906 29.3721Z" stroke="#C9A86C" stroke-width="1.2" stroke-miterlimit="10" stroke-linecap="round" stroke-linejoin="round"/>
<path d="M7.95059 13.4278V17.0313C5.69619 16.6613 4.39453 16.4082 4.39453 16.4082V12.8047C4.39453 12.8047 5.69619 13.0578 7.95059 13.4278Z" stroke="#C9A86C" stroke-width="1.2" stroke-miterlimit="10" stroke-linecap="round" stroke-linejoin="round"/>
<path d="M11.4668 13.9744V17.5779C10.1291 17.3802 8.94697 17.1938 7.95117 17.0313V13.4277C8.94697 13.5903 10.1291 13.7767 11.4668 13.9744Z" stroke="#C9A86C" stroke-width="1.2" stroke-miterlimit="10" stroke-linecap="round" stroke-linejoin="round"/>
<path d="M20.7428 15.1603V18.7638C17.214 18.3832 14.0499 17.9596 11.4668 17.5781V13.9746C14.0499 14.3561 17.214 14.7797 20.7428 15.1603Z" stroke="#C9A86C" stroke-width="1.2" stroke-miterlimit="10" stroke-linecap="round" stroke-linejoin="round"/>
<path d="M24.2578 15.5117V19.1152C23.0528 19.0045 21.8786 18.8858 20.7422 18.7637V15.1602C21.8786 15.2823 23.0528 15.401 24.2578 15.5117Z" stroke="#C9A86C" stroke-width="1.2" stroke-miterlimit="10" stroke-linecap="round" stroke-linejoin="round"/>
<path d="M32.6074 16.1111V19.7146C29.7272 19.5705 26.9183 19.3604 24.2578 19.1152V15.5117C26.9183 15.7569 29.7272 15.967 32.6074 16.1111Z" stroke="#C9A86C" stroke-width="1.2" stroke-miterlimit="10" stroke-linecap="round" stroke-linejoin="round"/>
<path d="M36.123 16.252V19.8555C34.9427 19.8212 33.7693 19.7729 32.6074 19.7148V16.1113C33.7693 16.1693 34.9427 16.2177 36.123 16.252Z" stroke="#C9A86C" stroke-width="1.2" stroke-miterlimit="10" stroke-linecap="round" stroke-linejoin="round"/>
<path d="M40.6055 16.3205V19.924C39.1078 19.924 37.6102 19.9003 36.123 19.8555V16.252C37.6102 16.2968 39.1078 16.3205 40.6055 16.3205Z" stroke="#C9A86C" stroke-width="1.2" stroke-miterlimit="10" stroke-linecap="round" stroke-linejoin="round"/>
<path d="M4.39453 4.89453C4.39453 4.89453 22.5 8.41016 40.6055 8.41016" stroke="#C9A86C" stroke-width="1.2" stroke-miterlimit="10" stroke-linecap="round" stroke-linejoin="round"/>
<path d="M4.39453 4.89453L9.70805 13.7082L17.0606 6.82329L22.5 15.3427L29.5066 8.01948L34.3687 16.1907L40.6055 8.41016" stroke="#C9A86C" stroke-width="1.2" stroke-miterlimit="10" stroke-linecap="round" stroke-linejoin="round"/>
<path d="M37.0488 30.8741V34.4776C39.3032 34.1076 40.6049 33.8545 40.6049 33.8545V30.251C40.6049 30.251 39.3032 30.5041 37.0488 30.8741Z" stroke="#C9A86C" stroke-width="1.2" stroke-miterlimit="10" stroke-linecap="round" stroke-linejoin="round"/>
<path d="M33.5332 31.4207V35.0242C34.8709 34.8265 36.053 34.6401 37.0488 34.4775V30.874C36.053 31.0366 34.8709 31.2229 33.5332 31.4207Z" stroke="#C9A86C" stroke-width="1.2" stroke-miterlimit="10" stroke-linecap="round" stroke-linejoin="round"/>
<path d="M24.2578 32.6065V36.2101C27.7866 35.8295 30.9507 35.4059 33.5338 35.0244V31.4209C30.9507 31.8023 27.7866 32.226 24.2578 32.6065Z" stroke="#C9A86C" stroke-width="1.2" stroke-miterlimit="10" stroke-linecap="round" stroke-linejoin="round"/>
<path d="M20.7422 32.958V36.5615C21.9472 36.4508 23.1214 36.3321 24.2578 36.21V32.6064C23.1214 32.7286 21.9472 32.8473 20.7422 32.958Z" stroke="#C9A86C" stroke-width="1.2" stroke-miterlimit="10" stroke-linecap="round" stroke-linejoin="round"/>
<path d="M12.3926 33.5574V37.1609C15.2728 37.0168 18.0817 36.8067 20.7422 36.5615V32.958C18.0817 33.2032 15.2728 33.4133 12.3926 33.5574Z" stroke="#C9A86C" stroke-width="1.2" stroke-miterlimit="10" stroke-linecap="round" stroke-linejoin="round"/>
<path d="M8.87695 33.6982V37.3018C10.0573 37.2675 11.2307 37.2191 12.3926 37.1611V33.5576C11.2307 33.6156 10.0573 33.664 8.87695 33.6982Z" stroke="#C9A86C" stroke-width="1.2" stroke-miterlimit="10" stroke-linecap="round" stroke-linejoin="round"/>
<path d="M4.39453 33.7668V37.3703C5.89219 37.3703 7.38984 37.3466 8.87695 37.3018V33.6982C7.38984 33.7431 5.89219 33.7668 4.39453 33.7668Z" stroke="#C9A86C" stroke-width="1.2" stroke-miterlimit="10" stroke-linecap="round" stroke-linejoin="round"/>
<path d="M40.6055 22.3408C40.6055 22.3408 22.5 25.8564 4.39453 25.8564" stroke="#C9A86C" stroke-width="1.2" stroke-miterlimit="10" stroke-linecap="round" stroke-linejoin="round"/>
<path d="M40.6055 22.3408L35.292 31.1545L27.9394 24.2696L22.5 32.789L15.4934 25.4658L10.6313 33.637L4.39453 25.8564" stroke="#C9A86C" stroke-width="1.2" stroke-miterlimit="10" stroke-linecap="round" stroke-linejoin="round"/>
</g>
<defs>
<clipPath id="clip0_485_435">
<rect width="45" height="45" fill="white" transform="translate(0 0.5)"/>
</clipPath>
</defs>
</svg>
