<svg width="69" height="55" viewBox="0 0 69 55" fill="none" xmlns="http://www.w3.org/2000/svg">
<path d="M12.6281 0.154114C5.9817 0.154114 0.589844 5.5379 0.589844 12.1843V42.8088C0.589844 49.4551 5.9817 54.847 12.6281 54.847H56.3727C63.0191 54.847 68.4029 49.4551 68.4029 42.8088V12.1843C68.4029 5.5379 63.0191 0.154114 56.3727 0.154114H12.6281ZM12.6281 2.34215H56.3727C61.8451 2.34215 66.2148 6.71194 66.2148 12.1843V42.8088C66.2148 48.2811 61.8451 52.659 56.3727 52.659H12.6281C7.15574 52.659 2.77788 48.2811 2.77788 42.8088V12.1843C2.77788 6.71194 7.15574 2.34215 12.6281 2.34215Z" fill="#C9A86C"/>
<path d="M21.3724 7.81628C17.761 7.81628 14.8164 10.7609 14.8164 14.3723C14.8164 17.9837 17.761 20.9364 21.3724 20.9364C24.9839 20.9364 27.9366 17.9837 27.9366 14.3723C27.9366 10.7609 24.9839 7.81628 21.3724 7.81628ZM21.3724 9.99625C23.8016 9.99625 25.7485 11.9431 25.7485 14.3723C25.7485 16.8015 23.8016 18.7484 21.3724 18.7484C18.9432 18.7484 16.9964 16.8015 16.9964 14.3723C16.9964 11.9431 18.9432 9.99625 21.3724 9.99625Z" fill="#C9A86C"/>
<path d="M21.921 27.6459L1.13867 39.6761L2.23673 41.5735L22.3489 29.9228L34.9766 40.54L36.3814 38.8687L23.1725 27.7589C23.0008 27.6138 22.7885 27.525 22.5646 27.5048C22.3406 27.4846 22.1159 27.5338 21.921 27.6459Z" fill="#C9A86C"/>
<path d="M49.1064 26.6608L18.0137 52.9173L19.4266 54.5886L49.8008 28.9458L66.5946 43.6323L68.0317 41.9933L50.5355 26.677C50.3388 26.5034 50.0863 26.4062 49.824 26.4033C49.5616 26.4003 49.307 26.4917 49.1064 26.6608Z" fill="#C9A86C"/>
</svg>
