<svg width="181" height="136" viewBox="0 0 181 136" fill="none" xmlns="http://www.w3.org/2000/svg">
<path d="M15.2231 95.8471V96.5367H18.4587L15.2231 97.7567V105.66C15.2231 106.084 15.17 106.296 15.0109 106.349C14.8518 106.403 14.5866 106.509 14.1092 106.562C13.6849 106.668 13.2605 106.721 12.8892 106.721C11.8284 106.721 10.8206 106.509 9.97192 106.084C9.12325 105.66 8.38065 105.023 7.74415 104.069C7.10764 103.167 6.63026 102 6.31201 100.568C5.99376 99.1358 5.83463 97.4384 5.83463 95.4758C5.83463 93.4602 5.99376 91.7629 6.36505 90.3838C6.73635 88.9517 7.21372 87.8378 7.90327 86.9361C8.53978 86.0344 9.33541 85.3979 10.2902 84.9735C11.1919 84.5492 12.1997 84.337 13.3666 84.337C13.6318 84.337 14.0031 84.337 14.4275 84.39C14.8518 84.4431 15.3822 84.4961 15.9126 84.6022C16.4431 84.7083 17.0265 84.8674 17.5569 85.0796C18.1404 85.2918 18.6708 85.557 19.1482 85.8752V88.3682H19.8377V85.3448C18.7769 84.7614 17.7161 84.337 16.6022 84.0718C15.5413 83.8066 14.3744 83.6475 13.0484 83.6475C10.9797 83.6475 9.12324 83.9127 7.53198 84.4961C5.88767 85.0796 4.56162 85.8752 3.44774 86.9361C2.33385 87.9969 1.48518 89.2169 0.901714 90.649C0.318251 92.0812 0 93.6724 0 95.4758C0 97.2793 0.318251 98.9236 0.901714 100.409C1.48518 101.894 2.33385 103.114 3.44774 104.175C4.50858 105.183 5.83463 105.978 7.31981 106.562C8.85803 107.145 10.5023 107.41 12.3058 107.41C13.897 107.41 15.2761 107.251 16.6022 106.88C17.8752 106.562 19.1482 106.031 20.3682 105.395V95.8471H15.2231ZM41.532 83.8066V99.0827C41.532 101.098 41.0016 102.637 39.9407 103.75C38.8799 104.811 37.4477 105.395 35.6443 105.395C33.8939 105.395 32.5679 104.864 31.6661 103.857C30.7114 102.849 30.287 101.257 30.287 99.0297V83.8066H24.9298V84.4961H28.1123L24.9298 85.7161V98.128C24.9298 99.8253 25.142 101.204 25.6193 102.371C26.0967 103.538 26.6802 104.493 27.5289 105.236C28.3245 105.978 29.3323 106.509 30.4462 106.88C31.5601 107.251 32.8331 107.41 34.1591 107.41C35.3791 107.41 36.546 107.198 37.5538 106.827C38.5616 106.456 39.4633 105.872 40.2059 105.13C40.9485 104.387 41.4789 103.538 41.9033 102.477C42.2746 101.47 42.4867 100.303 42.4867 99.0297V83.8066H41.532ZM45.5101 83.8066H66.4618V87.8908H65.7722V84.5492H55.5351L58.7176 85.7691V106.721V107.41H53.3073V84.5492H46.2527V87.8908H45.5632V83.8066H45.5101ZM77.8658 83.7536H74.8424L66.5679 107.41H67.3635L70.0156 99.6662H81.4196L78.3962 100.886L80.5179 107.357H85.9813L77.8658 83.7536ZM70.2278 98.9766L74.0998 87.8378L77.7067 98.9766H70.2278ZM172.387 83.7536H169.363L161.089 107.41H161.885L164.537 99.6662H175.941L172.917 100.886L175.039 107.357H180.502L172.387 83.7536ZM164.802 98.9766L168.674 87.8378L172.281 98.9766H164.802ZM114.889 83.8066V103.22L113.669 98.3401L103.061 83.8066H99.2948V107.41H100.144V85.557L101.417 90.4368L113.828 107.516H115.844V83.8066H114.889ZM118.92 95.5819C118.92 93.6194 119.239 91.922 119.875 90.4368C120.512 88.9517 121.36 87.7317 122.421 86.7239C123.482 85.7161 124.649 84.9735 126.028 84.4961C127.407 83.9657 128.786 83.7536 130.218 83.7536C131.651 83.7536 133.083 84.0188 134.409 84.4961C135.735 84.9735 136.955 85.7161 138.016 86.7239C139.076 87.7317 139.925 88.9517 140.562 90.4368C141.198 91.922 141.516 93.6724 141.516 95.635C141.516 97.5445 141.198 99.2949 140.562 100.78C139.925 102.265 139.076 103.485 138.016 104.493C136.955 105.501 135.788 106.243 134.409 106.721C133.083 107.251 131.651 107.463 130.218 107.463C128.786 107.463 127.354 107.198 126.028 106.721C124.702 106.243 123.482 105.501 122.421 104.493C121.36 103.485 120.512 102.265 119.875 100.78C119.239 99.2949 118.92 97.5445 118.92 95.5819ZM125.285 102.265C125.657 103.91 126.24 105.023 127.036 105.713C127.831 106.403 128.892 106.721 130.165 106.721C131.491 106.721 132.552 106.403 133.348 105.713C134.197 105.023 134.78 103.91 135.098 102.265C135.417 100.833 135.576 98.8175 135.629 96.2715V94.8924C135.629 93.6194 135.576 92.4525 135.47 91.4447C135.417 90.4369 135.257 89.5882 135.098 88.8456C134.727 87.2543 134.144 86.0874 133.295 85.4509C132.499 84.7613 131.438 84.4431 130.112 84.4431C128.839 84.4431 127.778 84.7613 126.983 85.4509C126.187 86.1404 125.604 87.2543 125.179 88.8456C124.861 90.2777 124.649 92.2933 124.596 94.8924V96.2715C124.596 97.5445 124.649 98.6584 124.755 99.6662C124.967 100.674 125.073 101.523 125.285 102.265ZM160.718 83.8066L154.512 102.265L148.2 83.8066H142.524L142.789 84.5492H146.608L143.214 85.7691C143.585 85.3979 151.011 107.516 151.011 107.516H153.663L161.619 83.8066H160.718Z" fill="white"/>
<path d="M50.0719 120.83C50.0719 119.928 49.5945 119.504 48.7458 119.504C46.412 119.504 42.0095 123.906 42.0625 127.619C42.0625 129.104 42.8051 130.377 44.4494 130.377C46.1998 130.377 47.5259 129.211 48.2685 127.725C48.3746 127.513 48.8519 127.725 48.7989 127.991C48.2154 129.688 46.412 131.12 44.5555 131.12C42.646 131.12 41.2139 130.165 41.2139 127.46C41.2139 124.225 45.3512 118.92 48.7989 118.92C49.9658 118.92 50.7084 119.663 50.7084 120.83C50.7084 122.739 48.905 124.543 47.3137 125.392C47.1015 125.498 46.0407 126.028 45.6694 126.028C45.5633 126.028 45.5103 125.975 45.5103 125.922C45.5103 125.657 45.7224 125.285 45.9877 125.179C46.8894 124.808 46.7833 124.914 47.4728 124.49C48.7458 123.8 50.0719 122.315 50.0719 120.83ZM84.6554 128.521C84.6554 128.786 84.5493 128.892 84.3901 128.998C83.5415 129.635 82.0563 131.067 80.3059 131.067C79.139 131.067 78.8207 130.324 78.7677 129.158C77.866 130.165 75.6912 131.544 75.0017 132.605C74.6834 133.083 73.7817 135.947 73.1452 135.947C72.827 135.947 72.7209 135.629 72.7209 135.363C72.7209 133.507 74.2061 132.658 74.7365 131.438L75.7443 129.104L75.6912 129.051C75.1608 129.635 74.153 131.014 73.1452 131.014C71.9783 131.014 71.7131 130.165 71.66 129.104C70.8114 129.9 69.0079 131.014 68.5306 131.014C68.2123 131.014 68.0001 130.908 68.0001 130.59C68.0001 130.218 68.3184 129.688 68.4245 129.37L68.3714 129.317C67.894 129.9 67.0454 131.014 66.1437 131.014C65.0298 131.014 64.7646 130.377 64.7115 128.998C64.6585 129.051 64.6585 129.051 64.6054 129.104C63.9689 129.688 62.1655 131.014 61.2107 131.014C60.9455 131.014 60.6273 130.961 60.6273 130.643C60.6273 129.847 61.529 128.362 61.7942 127.566L61.7412 127.513L60.309 128.892C60.256 128.945 60.256 128.945 60.2029 128.945C60.1499 128.998 60.0969 129.051 60.0438 129.104C59.4073 129.688 57.6039 131.014 56.6491 131.014C56.3839 131.014 56.0657 130.961 56.0657 130.643C56.0657 129.847 56.9674 128.362 57.2326 127.566L57.1795 127.513L55.7474 128.892C55.6944 128.945 55.6944 128.945 55.6413 128.945C55.5883 128.998 55.5352 129.051 55.4822 129.104C55.0579 129.423 54.6335 129.582 54.1031 129.582C53.944 129.582 53.7318 129.582 53.6257 129.476C53.0953 130.165 52.0345 130.961 51.1327 130.961C49.8067 130.961 49.7537 129.688 49.7537 128.521C49.7537 126.293 52.4058 124.49 53.3605 124.49C53.6257 124.49 53.6788 124.596 53.6788 124.808C53.6788 125.073 53.4666 125.126 52.7771 125.338C51.6632 125.763 50.4432 127.142 50.4432 128.627C50.4432 129.529 50.5493 130.324 51.3449 130.324C51.9814 130.324 52.777 129.582 53.0953 129.051C52.8301 128.733 52.671 128.309 52.671 127.884C52.671 126.877 53.2544 125.338 54.2092 125.338C54.6866 125.338 54.7927 125.816 54.7927 126.24C54.7927 127.195 54.4744 128.044 53.997 128.786C54.1031 128.839 54.2092 128.892 54.3153 128.892C54.8457 128.892 55.27 128.415 55.6944 128.097C56.2248 127.513 57.6039 126.293 57.816 125.816L58.6647 123.694H57.6039C57.3387 123.694 57.1795 123.641 57.1795 123.429C57.1795 123.27 57.2856 123.058 57.4978 123.058H58.9299C59.1421 122.58 60.0438 119.398 60.6803 119.398C60.8394 119.398 60.9455 119.504 60.9455 119.716C60.9455 120.512 59.9377 122.209 59.7256 123.111H60.8394C60.8925 123.111 60.8925 123.217 60.8925 123.323C60.8925 123.588 60.7334 123.747 60.4151 123.747H59.4604C59.1421 124.543 56.9674 129.529 56.9674 129.953C56.9674 130.112 57.1265 130.165 57.2326 130.165C57.8691 130.165 59.8847 128.415 60.0969 128.203L60.1499 128.15C60.7334 127.566 62.0594 126.346 62.2716 125.869L63.1203 123.747H62.0594C61.7942 123.747 61.6351 123.694 61.6351 123.482C61.6351 123.323 61.7412 123.111 61.9533 123.111H63.3855C63.5976 122.633 64.4994 119.451 65.1359 119.451C65.295 119.451 65.4011 119.557 65.4011 119.769C65.4011 120.565 64.3933 122.262 64.1811 123.164H65.295C65.348 123.164 65.348 123.27 65.348 123.376C65.348 123.641 65.1889 123.8 64.8707 123.8H63.9159C63.5976 124.596 61.4229 129.582 61.4229 130.006C61.4229 130.165 61.582 130.218 61.6881 130.218C62.3246 130.218 64.3402 128.468 64.5524 128.256C64.8706 126.293 68.0532 124.755 69.6444 124.755C70.0688 124.755 71.0235 124.914 71.1296 125.232C71.1296 125.338 70.9705 125.71 70.8644 125.71C70.7583 125.71 70.5462 125.285 69.5914 125.285C68.0532 125.285 65.2419 127.036 65.2419 128.733C65.2419 128.733 65.2419 128.786 65.2419 128.839C65.2419 129.423 65.2419 130.324 65.9845 130.324C66.9393 130.324 69.1671 127.248 69.5384 126.611C69.6975 126.293 69.8036 126.187 70.1218 126.187C70.1749 126.187 70.5462 126.187 70.5462 126.24C70.5462 126.399 68.8488 129.794 68.6897 130.218C69.8036 129.953 70.7053 129.104 71.554 128.362C71.8192 126.452 75.0547 124.755 76.699 124.755C77.1764 124.755 78.2373 125.073 78.2373 125.338C78.2373 125.498 78.1842 125.922 77.972 125.922C77.8129 125.922 77.5477 125.285 76.646 125.285C75.0547 125.285 72.1905 127.089 72.1905 128.892C72.1905 129.529 72.1905 130.324 73.0391 130.324C74.3121 130.324 76.3278 126.505 77.1234 126.505C77.2295 126.505 77.3356 126.558 77.3886 126.611C77.5477 126.718 75.5852 130.961 75.5852 130.961H75.6382C75.9564 130.696 77.866 129.158 78.6086 128.415C78.8207 126.771 81.2607 124.808 82.6398 124.808C83.3293 124.808 83.8067 125.179 83.8067 125.71C83.8067 127.354 82.1093 128.733 79.9346 128.733H79.4042C79.4042 128.839 79.4042 128.998 79.4042 129.104C79.4042 129.794 79.6164 130.484 80.5181 130.484C82.3215 130.484 84.3902 128.203 84.5493 128.203C84.6023 128.203 84.6554 128.468 84.6554 128.521ZM79.5633 128.097C79.7224 128.15 79.8816 128.15 80.0407 128.15C81.632 128.15 83.1702 126.983 83.1702 125.763C83.1702 125.445 82.905 125.338 82.5867 125.338C81.685 125.338 79.7224 127.142 79.5633 128.097ZM54.3153 126.505C54.3153 126.452 54.3153 126.187 54.1561 126.187C53.7318 126.187 53.3605 127.301 53.3605 127.778C53.3605 128.097 53.4136 128.415 53.5727 128.68C53.8909 128.15 54.3153 127.142 54.3153 126.505ZM95.1047 124.49C94.4151 124.914 94.5212 124.808 93.6195 125.179C93.3543 125.285 93.1421 125.657 93.1421 125.922C93.1421 125.975 93.1951 126.028 93.3012 126.028C93.7256 126.028 94.7864 125.498 94.9455 125.392C96.4837 124.49 98.3402 122.739 98.3402 120.83C98.3402 119.663 97.6507 118.92 96.4307 118.92C92.983 118.92 88.8457 124.225 88.8457 127.46C88.8457 130.165 90.2778 131.12 92.1873 131.12C94.0438 131.12 95.8472 129.688 96.4307 127.991C96.4838 127.778 96.0064 127.566 95.9003 127.725C95.1577 129.211 93.8316 130.377 92.0812 130.377C90.4369 130.377 89.6944 129.104 89.6413 127.619C89.5883 123.959 93.9908 119.504 96.3246 119.504C97.1733 119.504 97.6507 119.928 97.6507 120.83C97.5976 122.315 96.2716 123.8 95.1047 124.49ZM139.236 128.521C139.236 128.892 139.077 128.892 138.864 129.104C138.281 129.688 136.424 131.067 135.629 131.067C135.151 131.067 135.045 130.802 135.045 130.377C135.045 130.324 135.045 130.271 135.045 130.218L135.098 128.574C135.098 128.574 132.924 130.855 132.765 130.961C132.552 131.173 131.757 131.12 132.181 130.643C132.446 130.377 133.666 129.051 133.666 129.051C133.878 128.839 135.151 127.619 135.151 127.46L135.258 125.922C135.258 125.869 135.258 125.816 135.258 125.763C135.258 125.657 135.258 125.604 135.151 125.604C134.886 125.604 132.34 128.68 131.757 129.051C130.908 129.741 129.476 131.12 127.673 131.12C126.506 131.12 126.187 130.377 126.134 129.264C125.445 129.9 123.694 131.12 122.899 131.12C122.634 131.12 122.262 131.12 122.262 130.696C122.262 130.324 122.899 128.362 123.058 127.884L123.005 127.831C122.899 127.938 122.103 128.786 121.785 128.998C121.626 129.158 121.467 129.264 121.361 129.37C120.406 130.165 119.08 130.696 117.807 130.696C117.648 130.696 117.541 130.749 117.382 130.855C117.223 130.961 117.011 131.067 116.64 131.067C116.162 131.067 115.579 130.855 115.579 130.431C115.579 130.165 116.162 130.165 116.375 130.165C116.534 130.165 116.746 130.218 116.852 130.218C117.117 130.218 117.435 130.218 117.595 129.953C118.549 128.892 119.769 127.672 119.769 126.187C119.769 125.71 119.61 125.392 119.133 125.392C118.072 125.392 116.109 127.991 115.526 129.37C114.942 130.696 114.253 133.878 114.147 134.939C114.094 135.204 113.882 136 113.51 136C113.298 136 113.298 135.735 113.298 135.523C113.298 135.47 113.298 135.416 113.298 135.416C113.298 133.878 114.836 128.998 115.526 127.407L115.473 127.354C115.367 127.46 113.935 128.945 113.722 129.051C113.351 129.423 111.176 131.067 110.434 131.067C110.063 131.067 109.903 130.961 109.903 130.59C109.903 130.431 110.381 129.476 110.858 128.468C111.336 127.46 111.813 126.452 111.919 126.134C111.919 126.081 111.919 126.081 111.919 126.028V125.975C111.866 125.975 111.813 126.081 111.76 126.081C110.752 126.771 108.312 129.741 107.304 130.696C107.198 130.802 106.986 131.014 106.827 131.014C106.562 131.014 106.509 130.908 106.509 130.696C106.509 130.377 106.986 129.37 107.463 128.362C107.941 127.354 108.418 126.346 108.524 126.081C108.524 126.081 108.524 126.081 108.524 126.028C108.524 125.975 108.524 125.922 108.471 125.922C108.418 125.922 108.365 125.975 108.365 126.028C107.145 126.877 104.016 130.961 103.432 130.961C103.273 130.961 103.114 130.855 103.114 130.696C103.167 130.218 103.857 128.945 104.069 128.256L104.122 128.044C104.122 128.044 103.22 128.945 103.114 128.945C103.114 128.945 103.114 128.945 103.061 128.945C103.008 128.998 103.008 128.998 102.955 129.051C102.531 129.37 102.106 129.529 101.576 129.529C101.417 129.529 101.204 129.529 101.098 129.423C100.568 130.112 99.5072 130.908 98.6054 130.908C97.2794 130.908 97.2263 129.635 97.2263 128.468C97.2263 126.24 99.8784 124.437 100.833 124.437C101.098 124.437 101.151 124.543 101.151 124.755C101.151 125.02 100.939 125.073 100.25 125.285C99.1358 125.71 97.9159 127.089 97.9159 128.574C97.9159 129.476 98.022 130.271 98.8176 130.271C99.4541 130.271 100.25 129.529 100.568 128.998C100.303 128.68 100.144 128.256 100.144 127.831C100.144 126.824 100.727 125.285 101.682 125.285C102.159 125.285 102.265 125.763 102.265 126.187C102.265 127.142 101.947 127.991 101.47 128.733C101.576 128.786 101.682 128.839 101.788 128.839C102.371 128.839 102.796 128.309 103.273 127.991C103.751 127.513 104.705 126.771 104.97 126.187C105.342 125.392 105.448 124.702 106.031 124.702C106.19 124.702 106.35 124.755 106.35 124.861C106.35 124.967 106.243 125.179 106.137 125.338L104.493 128.786H104.546C105.236 127.991 108.365 124.543 109.214 124.543C109.532 124.543 109.638 124.596 109.691 124.914C109.691 125.285 108.153 128.203 107.994 128.733L108.047 128.786C108.736 128.044 111.707 124.596 112.662 124.596C112.98 124.596 113.086 124.808 113.086 125.02C113.086 125.073 112.609 126.134 112.131 127.248C111.654 128.362 111.07 129.529 110.964 129.847C110.964 129.9 110.964 129.9 110.964 129.953C110.964 130.006 110.964 130.059 111.017 130.059C111.389 130.059 113.033 128.733 113.669 128.15C113.722 128.044 113.829 127.991 113.935 127.884C114.677 127.248 116.109 125.975 116.481 125.02C116.587 124.755 116.64 124.702 116.958 124.702C117.064 124.702 117.223 124.702 117.329 124.755C117.435 124.808 116.905 126.134 116.905 126.134L116.958 126.187C117.435 125.604 118.443 124.543 119.292 124.543C120.3 124.543 120.724 125.02 120.724 125.975C120.724 127.354 119.716 128.839 118.708 129.741H118.761C120.087 129.741 121.414 128.468 121.891 128.097C122.368 127.566 123.535 126.718 123.747 126.028L126.293 118.973C126.399 118.655 126.559 118.337 126.93 118.337C127.089 118.337 127.142 118.496 127.142 118.708C127.142 119.61 125.392 123.429 124.437 126.346C124.331 126.718 123.217 129.582 123.217 129.9C123.217 130.059 123.323 130.059 123.482 130.059C124.066 130.059 125.71 128.627 126.293 128.203C126.506 126.558 128.946 124.596 130.325 124.596C131.014 124.596 131.492 124.967 131.492 125.498C131.492 127.142 129.794 128.521 127.619 128.521H126.983C126.983 128.627 126.983 128.786 126.983 128.892C126.983 129.582 127.195 130.271 128.097 130.271C129.635 130.271 131.439 128.574 131.969 128.15C131.969 128.15 131.969 128.097 132.022 128.097L135.045 124.861C135.151 124.702 135.47 124.596 135.629 124.596C136.053 124.596 136.106 124.861 136.106 125.179C136.106 125.232 136.106 125.285 136.106 125.285L136.053 126.665C136.053 126.665 137.644 124.914 137.804 124.755C138.175 124.384 138.811 124.649 138.599 124.861C138.44 125.02 136.371 127.248 136.371 127.248C136.212 127.407 135.947 127.619 135.894 127.778L135.788 129.529C135.788 129.582 135.788 129.688 135.788 129.794C135.788 129.953 135.841 130.112 136 130.112C136.531 130.112 138.44 128.627 139.024 128.044C139.13 127.938 139.13 127.938 139.183 127.938C139.236 128.203 139.236 128.468 139.236 128.521ZM127.142 128.097C127.301 128.15 127.46 128.15 127.619 128.15C129.211 128.15 130.749 126.983 130.749 125.763C130.749 125.445 130.484 125.338 130.165 125.338C129.264 125.338 127.301 127.142 127.142 128.097ZM101.894 126.505C101.894 126.452 101.894 126.187 101.735 126.187C101.311 126.187 100.939 127.301 100.939 127.778C100.939 128.097 100.992 128.415 101.151 128.68C101.417 128.15 101.894 127.142 101.894 126.505Z" fill="#C9A86C"/>
<path d="M90.278 0C71.4481 0 60.2031 13.4727 60.2031 36.0156C60.2031 58.5585 71.4481 72.0312 90.278 72.0312C109.108 72.0312 120.353 58.5585 120.353 36.0156C120.353 13.4727 109.108 0 90.278 0ZM116.852 27.3697C113.882 28.2184 111.071 29.3323 108.365 30.7644C110.116 27.0515 112.45 23.6037 115.208 20.5803C115.95 22.8612 116.481 25.142 116.852 27.3697ZM110.646 11.8814C112.184 13.897 113.404 16.1248 114.359 18.4056C110.487 22.4368 107.358 27.2636 105.289 32.5679C101.046 35.273 97.3326 38.7207 94.3092 42.6989C93.8849 39.092 92.9832 35.6443 91.6571 32.3557C95.4231 23.4446 102.159 16.2309 110.646 11.8814ZM109.214 10.2371C104.175 12.8892 99.7195 16.5491 96.1126 20.9516C94.6275 19.7847 93.2484 18.4587 91.9223 17.0796C94.097 12.8362 95.5822 8.22153 96.2187 3.34165C101.947 4.4025 106.138 6.89548 109.214 10.2371ZM90.278 2.81123C91.6571 2.81123 92.9301 2.91731 94.1501 3.0234C93.5666 7.37285 92.2936 11.5632 90.4371 15.3822C87.4668 11.8814 85.0799 7.85023 83.4356 3.50077C85.5042 3.07644 87.732 2.81123 90.278 2.81123ZM81.3669 4.0312C84.1251 11.404 88.7928 17.7691 94.8396 22.5959C93.1953 24.8237 91.7632 27.2106 90.5963 29.7036C86.5651 21.2168 79.8287 14.3214 71.5011 10.025C73.9941 7.42589 77.1766 5.30421 81.3669 4.0312ZM70.0159 11.6693C83.3295 18.2995 92.5588 32.0905 92.5588 47.9501C92.5588 52.3526 91.8693 56.5959 90.5432 60.521C89.2702 56.5429 88.5276 52.3526 88.5276 47.9501C88.5276 44.7145 88.8989 41.585 89.6415 38.5616C89.3232 37.2886 88.952 36.0156 88.4746 34.7956C87.6789 37.3416 87.0424 39.9407 86.7242 42.6459C83.7008 38.6677 79.9878 35.22 75.7975 32.5148C73.6758 26.9984 70.3872 22.0125 66.303 17.9282C67.2577 15.7535 68.4777 13.5788 70.0159 11.6693ZM65.5073 20.103C68.4777 23.2324 70.9176 26.7863 72.7741 30.7644C69.9629 29.2792 66.9395 28.0593 63.7569 27.2106C64.0752 24.9298 64.6587 22.4899 65.5073 20.103ZM65.5073 51.8752L64.8708 49.8065C63.3857 44.6084 63.0674 39.4633 63.0674 35.9626C63.0674 34.1061 63.1735 31.8253 63.4917 29.2792C69.1142 30.8175 74.2593 33.5226 78.6087 37.0764L80.253 38.4555C82.6399 40.6303 84.7616 43.1232 86.5651 45.8284C86.512 46.5179 86.512 47.1544 86.512 47.844C86.512 53.3604 87.5729 58.6115 89.4824 63.4914C88.6867 65.4009 87.732 67.2044 86.7242 68.9547C74.3123 67.7348 68.3186 59.9906 65.5073 51.8752ZM115.155 51.61C112.397 59.7254 106.562 67.4696 94.4683 68.9547C93.8318 67.8939 93.2484 66.8861 92.7179 65.7722C92.3466 66.5678 91.9753 67.3635 91.6041 68.1591C91.7632 68.4774 91.9753 68.7956 92.1345 69.1669C91.551 69.22 90.9145 69.2199 90.278 69.2199C89.8537 69.2199 89.4293 69.22 89.005 69.1669C92.6119 62.908 94.6805 55.6942 94.6805 47.9501C94.6805 47.2605 94.6805 46.571 94.6275 45.8814C96.4309 43.1763 98.5526 40.7363 100.993 38.5086L102.584 37.1295C106.827 33.6287 111.76 30.9766 117.17 29.4384C117.489 31.9314 117.542 34.1591 117.542 35.9626C117.542 39.4103 117.223 44.3963 115.791 49.4883L115.155 51.61Z" fill="#C9A86C"/>
</svg>
