<svg width="123" height="92" viewBox="0 0 123 92" fill="none" xmlns="http://www.w3.org/2000/svg">
<path d="M10.298 64.8377V65.3041H12.4867L10.298 66.1294V71.4758C10.298 71.7628 10.2621 71.9063 10.1544 71.9422C10.0468 71.9781 9.86739 72.0499 9.54446 72.0857C9.25741 72.1575 8.97036 72.1934 8.71919 72.1934C8.00156 72.1934 7.31981 72.0499 6.74571 71.7628C6.17161 71.4758 5.66927 71.0452 5.23869 70.3993C4.80811 69.7893 4.48518 68.9999 4.26989 68.0311C4.0546 67.0623 3.94696 65.9141 3.94696 64.5865C3.94696 63.223 4.0546 62.0748 4.30577 61.1419C4.55694 60.1731 4.87987 59.4196 5.34633 58.8096C5.77691 58.1996 6.31513 57.769 6.961 57.482C7.57098 57.1949 8.25273 57.0514 9.04212 57.0514C9.22153 57.0514 9.4727 57.0514 9.75975 57.0873C10.0468 57.1232 10.4056 57.1591 10.7644 57.2308C11.1232 57.3026 11.5179 57.4102 11.8768 57.5538C12.2714 57.6973 12.6303 57.8767 12.9532 58.092V59.7784H13.4197V57.7332C12.702 57.3385 11.9844 57.0514 11.2309 56.872C10.5133 56.6926 9.72386 56.585 8.82683 56.585C7.42745 56.585 6.17161 56.7644 5.09516 57.1591C3.98284 57.5538 3.0858 58.092 2.33229 58.8096C1.57878 59.5272 1.00468 60.3525 0.609983 61.3213C0.215287 62.2901 0 63.3665 0 64.5865C0 65.8065 0.215287 66.9188 0.609983 67.9235C1.00468 68.9282 1.57878 69.7535 2.33229 70.4711C3.04992 71.1528 3.94696 71.691 4.95164 72.0857C5.9922 72.4804 7.10452 72.6598 8.32449 72.6598C9.40093 72.6598 10.3339 72.5522 11.2309 72.301C12.092 72.0857 12.9532 71.7269 13.7785 71.2963V64.8377H10.298ZM28.0952 56.6926V67.0265C28.0952 68.39 27.7363 69.4305 27.0187 70.184C26.3011 70.9017 25.3323 71.2963 24.1123 71.2963C22.9282 71.2963 22.0312 70.9375 21.4212 70.2558C20.7753 69.574 20.4883 68.4976 20.4883 66.9906V56.6926H16.8643V57.1591H19.0172L16.8643 57.9843V66.3806C16.8643 67.5288 17.0078 68.4617 17.3307 69.2511C17.6537 70.0405 18.0484 70.6864 18.6225 71.1887C19.1607 71.691 19.8424 72.0499 20.5959 72.301C21.3495 72.5522 22.2106 72.6598 23.1076 72.6598C23.9329 72.6598 24.7223 72.5163 25.4041 72.2652C26.0858 72.014 26.6958 71.6193 27.1981 71.1169C27.7005 70.6146 28.0593 70.0405 28.3463 69.3229C28.5975 68.6411 28.741 67.8517 28.741 66.9906V56.6926H28.0952ZM30.7863 56.6926H44.9594V59.4555H44.493V57.1949H37.5679L39.7207 58.0202V72.1934V72.6598H36.0608V57.1949H31.2886V59.4555H30.8221V56.6926H30.7863ZM52.6739 56.6567H50.6287L45.0312 72.6598H45.5694L47.3635 67.4212H55.078L53.0328 68.2464L54.468 72.624H58.1638L52.6739 56.6567ZM47.507 66.9547L50.1264 59.4196L52.5663 66.9547H47.507ZM116.615 56.6567H114.569L108.972 72.6598H109.51L111.304 67.4212H119.019L116.973 68.2464L118.409 72.624H122.105L116.615 56.6567ZM111.484 66.9547L114.103 59.4196L116.543 66.9547H111.484ZM77.7192 56.6926V69.8252L76.8939 66.5241L69.7176 56.6926H67.17V72.6598H67.7441V57.8767L68.6053 61.1778L77.0015 72.7316H78.3651V56.6926H77.7192ZM80.4462 64.6583C80.4462 63.3307 80.6615 62.1825 81.092 61.1778C81.5226 60.1731 82.0967 59.3478 82.8143 58.6661C83.532 57.9843 84.3214 57.482 85.2543 57.1591C86.1872 56.8003 87.1201 56.6567 88.0889 56.6567C89.0577 56.6567 90.0265 56.8361 90.9236 57.1591C91.8206 57.482 92.6459 57.9843 93.3635 58.6661C94.0811 59.3478 94.6552 60.1731 95.0858 61.1778C95.5164 62.1825 95.7317 63.3666 95.7317 64.6942C95.7317 65.9859 95.5164 67.17 95.0858 68.1747C94.6552 69.1793 94.0811 70.0046 93.3635 70.6864C92.6459 71.3681 91.8565 71.8705 90.9236 72.1934C90.0265 72.5522 89.0577 72.6957 88.0889 72.6957C87.1201 72.6957 86.1513 72.5163 85.2543 72.1934C84.3572 71.8705 83.532 71.3681 82.8143 70.6864C82.0967 70.0046 81.5226 69.1793 81.092 68.1747C80.6615 67.17 80.4462 65.9859 80.4462 64.6583ZM84.7519 69.1793C85.0031 70.2917 85.3978 71.0452 85.936 71.5116C86.4743 71.9781 87.1919 72.1934 88.053 72.1934C88.9501 72.1934 89.6677 71.9781 90.2059 71.5116C90.78 71.0452 91.1747 70.2917 91.39 69.1793C91.6053 68.2105 91.7129 66.847 91.7488 65.1247V64.1918C91.7488 63.3307 91.7129 62.5413 91.6412 61.8595C91.6053 61.1778 91.4977 60.6037 91.39 60.1013C91.1388 59.0249 90.7441 58.2355 90.17 57.8049C89.6318 57.3385 88.9142 57.1232 88.0172 57.1232C87.156 57.1232 86.4384 57.3385 85.9002 57.8049C85.3619 58.2714 84.9672 59.0249 84.6802 60.1013C84.4649 61.0701 84.3214 62.4336 84.2855 64.1918V65.1247C84.2855 65.9859 84.3214 66.7394 84.3931 67.4212C84.5367 68.1029 84.6084 68.677 84.7519 69.1793ZM108.721 56.6926L104.523 69.1793L100.253 56.6926H96.4134L96.5928 57.1949H99.1763L96.8799 58.0202C97.131 57.769 102.154 72.7316 102.154 72.7316H103.949L109.331 56.6926H108.721Z" fill="#595E49"/>
<path d="M33.8711 81.7379C33.8711 81.128 33.5482 80.8409 32.9741 80.8409C31.3953 80.8409 28.4171 83.8191 28.453 86.3308C28.453 87.3354 28.9554 88.1966 30.0677 88.1966C31.2518 88.1966 32.1488 87.4072 32.6511 86.4025C32.7229 86.259 33.0458 86.4025 33.01 86.5819C32.6153 87.7301 31.3953 88.6989 30.1394 88.6989C28.8477 88.6989 27.8789 88.0531 27.8789 86.2231C27.8789 84.0344 30.6777 80.4462 33.01 80.4462C33.7993 80.4462 34.3017 80.9486 34.3017 81.7379C34.3017 83.0297 33.0817 84.2496 32.0053 84.8238C31.8617 84.8955 31.1441 85.2543 30.8929 85.2543C30.8212 85.2543 30.7853 85.2184 30.7853 85.1826C30.7853 85.0032 30.9288 84.752 31.1082 84.6802C31.7182 84.429 31.6465 84.5008 32.1129 84.2138C32.9741 83.7473 33.8711 82.7426 33.8711 81.7379ZM57.2658 86.9408C57.2658 87.1202 57.194 87.1919 57.0864 87.2637C56.5123 87.6943 55.5076 88.6631 54.3235 88.6631C53.5341 88.6631 53.3188 88.1607 53.283 87.3713C52.673 88.0531 51.2018 88.986 50.7354 89.7036C50.5201 90.0265 49.9101 91.9642 49.4795 91.9642C49.2642 91.9642 49.1925 91.7489 49.1925 91.5695C49.1925 90.3136 50.1972 89.7395 50.556 88.9142L51.2377 87.3355L51.2018 87.2996C50.843 87.6943 50.1613 88.6272 49.4795 88.6272C48.6901 88.6272 48.5107 88.0531 48.4748 87.3355C47.9007 87.8737 46.6808 88.6272 46.3578 88.6272C46.1426 88.6272 45.999 88.5554 45.999 88.3401C45.999 88.089 46.2143 87.7301 46.2861 87.5149L46.2502 87.479C45.9273 87.8737 45.3532 88.6272 44.7432 88.6272C43.9897 88.6272 43.8103 88.1966 43.7744 87.2637C43.7385 87.2996 43.7385 87.2996 43.7026 87.3355C43.272 87.7301 42.0521 88.6272 41.4062 88.6272C41.2268 88.6272 41.0115 88.5913 41.0115 88.376C41.0115 87.8378 41.6215 86.8331 41.8009 86.2949L41.765 86.259L40.7962 87.1919C40.7603 87.2278 40.7603 87.2278 40.7245 87.2278C40.6886 87.2637 40.6527 87.2996 40.6168 87.3355C40.1862 87.7301 38.9663 88.6272 38.3204 88.6272C38.141 88.6272 37.9257 88.5913 37.9257 88.376C37.9257 87.8378 38.5357 86.8331 38.7151 86.2949L38.6792 86.259L37.7104 87.1919C37.6745 87.2278 37.6745 87.2278 37.6387 87.2278C37.6028 87.2637 37.5669 87.2996 37.531 87.3355C37.244 87.5507 36.9569 87.6584 36.5981 87.6584C36.4905 87.6584 36.3469 87.6584 36.2752 87.5866C35.9163 88.0531 35.1987 88.5913 34.5887 88.5913C33.6917 88.5913 33.6558 87.7301 33.6558 86.9408C33.6558 85.4337 35.4499 84.2138 36.0958 84.2138C36.2752 84.2138 36.311 84.2855 36.311 84.4291C36.311 84.6085 36.1675 84.6443 35.7011 84.7879C34.9475 85.0749 34.1223 86.0078 34.1223 87.0125C34.1223 87.6225 34.194 88.1607 34.7323 88.1607C35.1628 88.1607 35.7011 87.6584 35.9163 87.2996C35.7369 87.0843 35.6293 86.7972 35.6293 86.5102C35.6293 85.8284 36.024 84.7879 36.6699 84.7879C36.9928 84.7879 37.0646 85.1108 37.0646 85.3978C37.0646 86.0437 36.8493 86.6178 36.5263 87.1202C36.5981 87.156 36.6699 87.1919 36.7416 87.1919C37.1004 87.1919 37.3875 86.869 37.6745 86.6537C38.0334 86.259 38.9663 85.4337 39.1098 85.1108L39.6839 83.6755H38.9663C38.7869 83.6755 38.6792 83.6397 38.6792 83.4961C38.6792 83.3885 38.751 83.245 38.8945 83.245H39.8633C40.0068 82.922 40.6168 80.7691 41.0474 80.7691C41.155 80.7691 41.2268 80.8409 41.2268 80.9844C41.2268 81.5227 40.545 82.6709 40.4015 83.2808H41.155C41.1909 83.2808 41.1909 83.3526 41.1909 83.4244C41.1909 83.6038 41.0833 83.7114 40.868 83.7114H40.2221C40.0068 84.2496 38.5357 87.6225 38.5357 87.9095C38.5357 88.0172 38.6433 88.0531 38.7151 88.0531C39.1457 88.0531 40.5092 86.869 40.6527 86.7255L40.6886 86.6896C41.0833 86.2949 41.9803 85.4696 42.1238 85.1467L42.6979 83.7114H41.9803C41.8009 83.7114 41.6933 83.6755 41.6933 83.532C41.6933 83.4244 41.765 83.2808 41.9085 83.2808H42.8773C43.0209 82.9579 43.6309 80.805 44.0614 80.805C44.1691 80.805 44.2408 80.8768 44.2408 81.0203C44.2408 81.5585 43.5591 82.7067 43.4156 83.3167H44.1691C44.205 83.3167 44.205 83.3885 44.205 83.4602C44.205 83.6397 44.0973 83.7473 43.882 83.7473H43.2362C43.0209 84.2855 41.5497 87.6584 41.5497 87.9454C41.5497 88.0531 41.6574 88.089 41.7291 88.089C42.1597 88.089 43.5232 86.9049 43.6667 86.7613C43.882 85.4337 46.0349 84.3932 47.1114 84.3932C47.3984 84.3932 48.0443 84.5008 48.116 84.7161C48.116 84.7879 48.0084 85.039 47.9366 85.039C47.8649 85.039 47.7213 84.752 47.0755 84.752C46.0349 84.752 44.1332 85.9361 44.1332 87.0843C44.1332 87.0843 44.1332 87.1202 44.1332 87.156C44.1332 87.5507 44.1332 88.1607 44.6355 88.1607C45.2814 88.1607 46.7884 86.0796 47.0396 85.649C47.1472 85.4337 47.219 85.362 47.4343 85.362C47.4702 85.362 47.7213 85.362 47.7213 85.3978C47.7213 85.5055 46.5731 87.8019 46.4655 88.089C47.219 87.9095 47.829 87.3354 48.4031 86.8331C48.5825 85.5414 50.7713 84.3932 51.8836 84.3932C52.2065 84.3932 52.9241 84.6085 52.9241 84.7879C52.9241 84.8955 52.8883 85.1826 52.7447 85.1826C52.6371 85.1826 52.4577 84.752 51.8477 84.752C50.7713 84.752 48.8337 85.9719 48.8337 87.1919C48.8337 87.6225 48.8337 88.1607 49.4078 88.1607C50.2689 88.1607 51.6324 85.5773 52.1706 85.5773C52.2424 85.5773 52.3142 85.6131 52.35 85.649C52.4577 85.7208 51.1301 88.5913 51.1301 88.5913H51.166C51.3812 88.4119 52.673 87.3713 53.1753 86.869C53.3188 85.7567 54.9694 84.4291 55.9023 84.4291C56.3688 84.4291 56.6917 84.6802 56.6917 85.039C56.6917 86.1514 55.5435 87.0843 54.0723 87.0843H53.7135C53.7135 87.156 53.7135 87.2637 53.7135 87.3355C53.7135 87.8019 53.8571 88.2684 54.467 88.2684C55.687 88.2684 57.0864 86.7255 57.194 86.7255C57.2299 86.7255 57.2658 86.9049 57.2658 86.9408ZM53.8212 86.6537C53.9288 86.6896 54.0365 86.6896 54.1441 86.6896C55.2206 86.6896 56.2611 85.9002 56.2611 85.0749C56.2611 84.8596 56.0817 84.7879 55.8664 84.7879C55.2564 84.7879 53.9288 86.0078 53.8212 86.6537ZM36.7416 85.5773C36.7416 85.5414 36.7416 85.362 36.634 85.362C36.3469 85.362 36.0958 86.1155 36.0958 86.4384C36.0958 86.6537 36.1316 86.869 36.2393 87.0484C36.4546 86.6896 36.7416 86.0078 36.7416 85.5773ZM64.3344 84.2138C63.868 84.5008 63.9397 84.429 63.3298 84.6802C63.1503 84.752 63.0068 85.0032 63.0068 85.1826C63.0068 85.2184 63.0427 85.2543 63.1145 85.2543C63.4015 85.2543 64.1191 84.8955 64.2268 84.8238C65.2674 84.2138 66.5232 83.0297 66.5232 81.7379C66.5232 80.9486 66.0568 80.4462 65.2315 80.4462C62.8992 80.4462 60.1004 84.0344 60.1004 86.2231C60.1004 88.0531 61.0692 88.6989 62.361 88.6989C63.6168 88.6989 64.8368 87.7301 65.2315 86.5819C65.2674 86.4384 64.9444 86.2949 64.8727 86.4025C64.3703 87.4072 63.4733 88.1966 62.2892 88.1966C61.1769 88.1966 60.6745 87.3354 60.6386 86.3308C60.6028 83.8549 63.5809 80.8409 65.1597 80.8409C65.7338 80.8409 66.0567 81.128 66.0567 81.7379C66.0209 82.7426 65.1238 83.7473 64.3344 84.2138ZM94.1878 86.9408C94.1878 87.1919 94.0801 87.1919 93.9366 87.3355C93.5419 87.7301 92.2861 88.6631 91.7479 88.6631C91.4249 88.6631 91.3532 88.4837 91.3532 88.1966C91.3532 88.1607 91.3532 88.1248 91.3532 88.089L91.389 86.9766C91.389 86.9766 89.9179 88.5195 89.8103 88.5913C89.6667 88.7348 89.1285 88.6989 89.4156 88.376C89.595 88.1966 90.4202 87.2996 90.4202 87.2996C90.5638 87.156 91.4249 86.3308 91.4249 86.2231L91.4967 85.1826C91.4967 85.1467 91.4967 85.1108 91.4967 85.0749C91.4967 85.0032 91.4967 84.9673 91.4249 84.9673C91.2455 84.9673 89.5232 87.0484 89.1285 87.2996C88.5544 87.766 87.5856 88.6989 86.3656 88.6989C85.5762 88.6989 85.361 88.1966 85.3251 87.4431C84.8586 87.8737 83.6745 88.6989 83.1363 88.6989C82.9569 88.6989 82.7057 88.6989 82.7057 88.4119C82.7057 88.1607 83.1363 86.8331 83.2439 86.5102L83.2081 86.4743C83.1363 86.5461 82.5981 87.1202 82.3828 87.2637C82.2752 87.3713 82.1675 87.4431 82.0957 87.5149C81.4499 88.0531 80.5528 88.4119 79.6917 88.4119C79.584 88.4119 79.5123 88.4478 79.4046 88.5195C79.297 88.5913 79.1535 88.6631 78.9023 88.6631C78.5794 88.6631 78.1847 88.5195 78.1847 88.2325C78.1847 88.0531 78.5794 88.0531 78.7229 88.0531C78.8305 88.0531 78.9741 88.089 79.0458 88.089C79.2252 88.089 79.4405 88.089 79.5482 87.9095C80.194 87.1919 81.0193 86.3667 81.0193 85.362C81.0193 85.039 80.9117 84.8238 80.5887 84.8238C79.8711 84.8238 78.5435 86.5819 78.1488 87.5149C77.7541 88.4119 77.2876 90.5648 77.2159 91.2824C77.18 91.4618 77.0365 92 76.7853 92C76.6418 92 76.6418 91.8206 76.6418 91.6771C76.6418 91.6412 76.6418 91.6053 76.6418 91.6053C76.6418 90.5648 77.6823 87.2637 78.1488 86.1872L78.1129 86.1514C78.0411 86.2231 77.0723 87.2278 76.9288 87.2996C76.6777 87.5507 75.2065 88.6631 74.7042 88.6631C74.453 88.6631 74.3454 88.5913 74.3454 88.3401C74.3454 88.2325 74.6683 87.5866 74.9912 86.9049C75.3142 86.2231 75.6371 85.5414 75.7088 85.3261C75.7088 85.2902 75.7088 85.2902 75.7088 85.2543V85.2184C75.673 85.2184 75.6371 85.2902 75.6012 85.2902C74.9195 85.7567 73.2689 87.766 72.5872 88.4119C72.5154 88.4837 72.3719 88.6272 72.2642 88.6272C72.0848 88.6272 72.049 88.5554 72.049 88.4119C72.049 88.1966 72.3719 87.5148 72.6948 86.8331C73.0177 86.1514 73.3407 85.4696 73.4124 85.2902C73.4124 85.2902 73.4124 85.2902 73.4124 85.2543C73.4124 85.2184 73.4124 85.1826 73.3766 85.1826C73.3407 85.1826 73.3048 85.2184 73.3048 85.2543C72.4795 85.8284 70.3625 88.5913 69.9678 88.5913C69.8602 88.5913 69.7525 88.5195 69.7525 88.4119C69.7884 88.089 70.2549 87.2278 70.3984 86.7613L70.4343 86.6178C70.4343 86.6178 69.8243 87.2278 69.7525 87.2278C69.7525 87.2278 69.7525 87.2278 69.7167 87.2278C69.6808 87.2637 69.6808 87.2637 69.6449 87.2996C69.3578 87.5149 69.0708 87.6225 68.712 87.6225C68.6043 87.6225 68.4608 87.6225 68.389 87.5507C68.0302 88.0172 67.3126 88.5554 66.7026 88.5554C65.8056 88.5554 65.7697 87.6943 65.7697 86.9049C65.7697 85.3978 67.5638 84.1779 68.2096 84.1779C68.389 84.1779 68.4249 84.2496 68.4249 84.3932C68.4249 84.5726 68.2814 84.6085 67.8149 84.752C67.0614 85.039 66.2362 85.972 66.2362 86.9766C66.2362 87.5866 66.3079 88.1248 66.8461 88.1248C67.2767 88.1248 67.8149 87.6225 68.0302 87.2637C67.8508 87.0484 67.7432 86.7613 67.7432 86.4743C67.7432 85.7925 68.1379 84.752 68.7837 84.752C69.1067 84.752 69.1784 85.0749 69.1784 85.362C69.1784 86.0078 68.9631 86.5819 68.6402 87.0843C68.712 87.1202 68.7837 87.156 68.8555 87.156C69.2502 87.156 69.5372 86.7972 69.8602 86.5819C70.1831 86.259 70.829 85.7567 71.0084 85.362C71.2596 84.8238 71.3313 84.3573 71.726 84.3573C71.8337 84.3573 71.9413 84.3932 71.9413 84.4649C71.9413 84.5367 71.8695 84.6802 71.7978 84.7879L70.6854 87.1202H70.7213C71.1878 86.5819 73.3048 84.2496 73.8789 84.2496C74.0942 84.2496 74.166 84.2855 74.2018 84.5008C74.2018 84.752 73.1613 86.7255 73.0536 87.0843L73.0895 87.1202C73.556 86.6178 75.5653 84.2855 76.2112 84.2855C76.4265 84.2855 76.4982 84.4291 76.4982 84.5726C76.4982 84.6085 76.1753 85.3261 75.8524 86.0796C75.5294 86.8331 75.1348 87.6225 75.063 87.8378C75.063 87.8737 75.063 87.8737 75.063 87.9095C75.063 87.9454 75.063 87.9813 75.0989 87.9813C75.35 87.9813 76.4624 87.0843 76.8929 86.6896C76.9288 86.6178 77.0006 86.5819 77.0723 86.5102C77.5747 86.0796 78.5435 85.2184 78.7947 84.5726C78.8664 84.3932 78.9023 84.3573 79.1176 84.3573C79.1893 84.3573 79.297 84.3573 79.3688 84.3932C79.4405 84.4291 79.0817 85.3261 79.0817 85.3261L79.1176 85.362C79.4405 84.9673 80.1223 84.2496 80.6964 84.2496C81.3781 84.2496 81.6652 84.5726 81.6652 85.2184C81.6652 86.1514 80.9834 87.156 80.3017 87.766H80.3376C81.2346 87.766 82.1316 86.9049 82.4546 86.6537C82.7775 86.2949 83.5669 85.7208 83.7104 85.2543L85.4327 80.4821C85.5045 80.2668 85.6121 80.0515 85.8633 80.0515C85.9709 80.0515 86.0068 80.1592 86.0068 80.3027C86.0068 80.9127 84.8227 83.4961 84.1769 85.4696C84.1051 85.7208 83.3516 87.6584 83.3516 87.8737C83.3516 87.9813 83.4234 87.9813 83.531 87.9813C83.9257 87.9813 85.038 87.0125 85.4327 86.7255C85.5762 85.6131 87.2268 84.2855 88.1597 84.2855C88.6262 84.2855 88.9491 84.5367 88.9491 84.8955C88.9491 86.0078 87.8009 86.9408 86.3298 86.9408H85.8992C85.8992 87.0125 85.8992 87.1202 85.8992 87.1919C85.8992 87.6584 86.0427 88.1248 86.6527 88.1248C87.6932 88.1248 88.9132 86.9766 89.272 86.6896C89.272 86.6896 89.272 86.6537 89.3079 86.6537L91.3532 84.4649C91.4249 84.3573 91.6402 84.2855 91.7479 84.2855C92.0349 84.2855 92.0708 84.4649 92.0708 84.6802C92.0708 84.7161 92.0708 84.752 92.0708 84.752L92.0349 85.6849C92.0349 85.6849 93.1114 84.5008 93.219 84.3932C93.4702 84.142 93.9007 84.3214 93.7572 84.4649C93.6496 84.5726 92.2502 86.0796 92.2502 86.0796C92.1425 86.1872 91.9631 86.3308 91.9273 86.4384L91.8555 87.6225C91.8555 87.6584 91.8555 87.7301 91.8555 87.8019C91.8555 87.9095 91.8914 88.0172 91.999 88.0172C92.3578 88.0172 93.6496 87.0125 94.0443 86.6178C94.116 86.5461 94.116 86.5461 94.1519 86.5461C94.1878 86.7255 94.1878 86.9049 94.1878 86.9408ZM86.0068 86.6537C86.1145 86.6896 86.2221 86.6896 86.3298 86.6896C87.4062 86.6896 88.4468 85.9002 88.4468 85.0749C88.4468 84.8596 88.2674 84.7879 88.0521 84.7879C87.4421 84.7879 86.1145 86.0078 86.0068 86.6537ZM68.9273 85.5773C68.9273 85.5414 68.9273 85.362 68.8196 85.362C68.5326 85.362 68.2814 86.1155 68.2814 86.4384C68.2814 86.6537 68.3173 86.869 68.4249 87.0484C68.6043 86.6896 68.9273 86.0078 68.9273 85.5773Z" fill="#C9A86C"/>
<path d="M61.0694 0C48.3315 0 40.7246 9.11388 40.7246 24.3635C40.7246 39.6131 48.3315 48.727 61.0694 48.727C73.8073 48.727 81.4142 39.6131 81.4142 24.3635C81.4142 9.11388 73.8073 0 61.0694 0ZM79.046 18.5148C77.0366 19.0889 75.1349 19.8424 73.305 20.8112C74.489 18.2995 76.0678 15.9672 77.9337 13.922C78.436 15.4649 78.7948 17.0078 79.046 18.5148ZM74.8478 8.03744C75.8884 9.40093 76.7137 10.908 77.3596 12.4509C74.7402 15.1778 72.6232 18.4431 71.2238 22.0312C68.3533 23.8611 65.8416 26.1934 63.7964 28.8846C63.5093 26.4446 62.8993 24.1123 62.0023 21.8877C64.5499 15.8596 69.1068 10.9797 74.8478 8.03744ZM73.8791 6.92512C70.4703 8.71919 67.4563 11.195 65.0163 14.1732C64.0117 13.3838 63.0787 12.4867 62.1817 11.5538C63.6528 8.6833 64.6575 5.56162 65.0881 2.26053C68.9633 2.97816 71.7979 4.66459 73.8791 6.92512ZM61.0694 1.90172C62.0023 1.90172 62.8634 1.97348 63.6887 2.04524C63.294 4.98752 62.4329 7.82215 61.177 10.4056C59.1677 8.03744 57.553 5.31045 56.4407 2.36817C57.8401 2.08112 59.3471 1.90172 61.0694 1.90172ZM55.0413 2.72699C56.9071 7.7145 60.0647 12.0203 64.1552 15.2855C63.0429 16.7925 62.0741 18.4072 61.2847 20.0936C58.5577 14.3526 54.0007 9.68798 48.3674 6.78159C50.0538 5.0234 52.2067 3.58814 55.0413 2.72699ZM47.3627 7.89391C56.3689 12.3791 62.6123 21.7083 62.6123 32.4368C62.6123 35.415 62.1458 38.2855 61.2488 40.9407C60.3876 38.2496 59.8853 35.415 59.8853 32.4368C59.8853 30.248 60.1365 28.131 60.6388 26.0858C60.4235 25.2246 60.1723 24.3635 59.8494 23.5382C59.3112 25.2605 58.8806 27.0187 58.6653 28.8487C56.6201 26.1576 54.1084 23.8253 51.2738 21.9953C49.8385 18.2636 47.6138 14.8908 44.851 12.1279C45.4968 10.6568 46.3221 9.18565 47.3627 7.89391ZM44.3128 13.5991C46.3221 15.7161 47.9727 18.1201 49.2285 20.8112C47.3268 19.8065 45.2816 18.9813 43.1287 18.4072C43.344 16.8643 43.7386 15.2137 44.3128 13.5991ZM44.3128 35.092L43.8822 33.6927C42.8775 30.1763 42.6622 26.6958 42.6622 24.3276C42.6622 23.0718 42.734 21.5289 42.9493 19.8065C46.7527 20.8471 50.2332 22.6771 53.1755 25.0811L54.2878 26.014C55.9025 27.4852 57.3377 29.1716 58.5577 31.0016C58.5218 31.468 58.5218 31.8986 58.5218 32.365C58.5218 36.0967 59.2394 39.649 60.5312 42.9501C59.9929 44.2418 59.3471 45.4618 58.6653 46.6459C50.2691 45.8206 46.2145 40.5819 44.3128 35.092ZM77.8978 34.9126C76.0319 40.4025 72.085 45.6412 63.904 46.6459C63.4734 45.9282 63.0787 45.2465 62.7199 44.493C62.4688 45.0312 62.2176 45.5694 61.9664 46.1076C62.0741 46.3229 62.2176 46.5382 62.3252 46.7894C61.9305 46.8253 61.5 46.8253 61.0694 46.8253C60.7823 46.8253 60.4953 46.8253 60.2082 46.7894C62.6482 42.5554 64.0475 37.6755 64.0475 32.4368C64.0475 31.9704 64.0475 31.5039 64.0117 31.0374C65.2316 29.2075 66.6669 27.5569 68.3174 26.0499L69.3939 25.117C72.2644 22.7488 75.6014 20.9548 79.2613 19.9142C79.4766 21.6006 79.5124 23.1076 79.5124 24.3276C79.5124 26.6599 79.2971 30.0328 78.3284 33.4774L77.8978 34.9126Z" fill="#C9A86C"/>
</svg>
