<svg width="123" height="92" viewBox="0 0 123 92" fill="none" xmlns="http://www.w3.org/2000/svg">
<path d="M10.298 64.8377V65.3041H12.4867L10.298 66.1294V71.4758C10.298 71.7628 10.2621 71.9063 10.1544 71.9422C10.0468 71.9781 9.86739 72.0499 9.54446 72.0857C9.25741 72.1575 8.97036 72.1934 8.71919 72.1934C8.00156 72.1934 7.31981 72.0499 6.74571 71.7628C6.17161 71.4758 5.66927 71.0452 5.23869 70.3993C4.80811 69.7893 4.48518 68.9999 4.26989 68.0311C4.0546 67.0623 3.94696 65.9141 3.94696 64.5865C3.94696 63.223 4.0546 62.0748 4.30577 61.1419C4.55694 60.1731 4.87987 59.4196 5.34633 58.8096C5.77691 58.1996 6.31513 57.769 6.961 57.482C7.57098 57.1949 8.25273 57.0514 9.04212 57.0514C9.22153 57.0514 9.4727 57.0514 9.75975 57.0873C10.0468 57.1232 10.4056 57.1591 10.7644 57.2308C11.1232 57.3026 11.5179 57.4102 11.8768 57.5538C12.2714 57.6973 12.6303 57.8767 12.9532 58.092V59.7784H13.4197V57.7332C12.702 57.3385 11.9844 57.0514 11.2309 56.872C10.5133 56.6926 9.72386 56.585 8.82683 56.585C7.42745 56.585 6.17161 56.7644 5.09516 57.1591C3.98284 57.5538 3.0858 58.092 2.33229 58.8096C1.57878 59.5272 1.00468 60.3525 0.609983 61.3213C0.215287 62.2901 0 63.3665 0 64.5865C0 65.8065 0.215287 66.9188 0.609983 67.9235C1.00468 68.9282 1.57878 69.7535 2.33229 70.4711C3.04992 71.1528 3.94696 71.691 4.95164 72.0857C5.9922 72.4804 7.10452 72.6598 8.32449 72.6598C9.40093 72.6598 10.3339 72.5522 11.2309 72.301C12.092 72.0857 12.9532 71.7269 13.7785 71.2963V64.8377H10.298ZM28.0952 56.6926V67.0265C28.0952 68.39 27.7363 69.4305 27.0187 70.184C26.3011 70.9017 25.3323 71.2963 24.1123 71.2963C22.9282 71.2963 22.0312 70.9375 21.4212 70.2558C20.7753 69.574 20.4883 68.4976 20.4883 66.9906V56.6926H16.8643V57.1591H19.0172L16.8643 57.9843V66.3806C16.8643 67.5288 17.0078 68.4617 17.3307 69.2511C17.6537 70.0405 18.0484 70.6864 18.6225 71.1887C19.1607 71.691 19.8424 72.0499 20.5959 72.301C21.3495 72.5522 22.2106 72.6598 23.1076 72.6598C23.9329 72.6598 24.7223 72.5163 25.4041 72.2652C26.0858 72.014 26.6958 71.6193 27.1981 71.1169C27.7005 70.6146 28.0593 70.0405 28.3463 69.3229C28.5975 68.6411 28.741 67.8517 28.741 66.9906V56.6926H28.0952ZM30.7863 56.6926H44.9594V59.4555H44.493V57.1949H37.5679L39.7207 58.0202V72.1934V72.6598H36.0608V57.1949H31.2886V59.4555H30.8221V56.6926H30.7863ZM52.6739 56.6567H50.6287L45.0312 72.6598H45.5694L47.3635 67.4212H55.078L53.0328 68.2464L54.468 72.624H58.1638L52.6739 56.6567ZM47.507 66.9547L50.1264 59.4196L52.5663 66.9547H47.507ZM116.615 56.6567H114.569L108.972 72.6598H109.51L111.304 67.4212H119.019L116.973 68.2464L118.409 72.624H122.105L116.615 56.6567ZM111.484 66.9547L114.103 59.4196L116.543 66.9547H111.484ZM77.7192 56.6926V69.8252L76.8939 66.5241L69.7176 56.6926H67.17V72.6598H67.7441V57.8767L68.6053 61.1778L77.0015 72.7316H78.3651V56.6926H77.7192ZM80.4462 64.6583C80.4462 63.3307 80.6615 62.1825 81.092 61.1778C81.5226 60.1731 82.0967 59.3478 82.8143 58.6661C83.532 57.9843 84.3214 57.482 85.2543 57.1591C86.1872 56.8003 87.1201 56.6567 88.0889 56.6567C89.0577 56.6567 90.0265 56.8361 90.9236 57.1591C91.8206 57.482 92.6459 57.9843 93.3635 58.6661C94.0811 59.3478 94.6552 60.1731 95.0858 61.1778C95.5164 62.1825 95.7317 63.3666 95.7317 64.6942C95.7317 65.9859 95.5164 67.17 95.0858 68.1747C94.6552 69.1793 94.0811 70.0046 93.3635 70.6864C92.6459 71.3681 91.8565 71.8705 90.9236 72.1934C90.0265 72.5522 89.0577 72.6957 88.0889 72.6957C87.1201 72.6957 86.1513 72.5163 85.2543 72.1934C84.3572 71.8705 83.532 71.3681 82.8143 70.6864C82.0967 70.0046 81.5226 69.1793 81.092 68.1747C80.6615 67.17 80.4462 65.9859 80.4462 64.6583ZM84.7519 69.1793C85.0031 70.2917 85.3978 71.0452 85.936 71.5116C86.4743 71.9781 87.1919 72.1934 88.053 72.1934C88.9501 72.1934 89.6677 71.9781 90.2059 71.5116C90.78 71.0452 91.1747 70.2917 91.39 69.1793C91.6053 68.2105 91.7129 66.847 91.7488 65.1247V64.1918C91.7488 63.3307 91.7129 62.5413 91.6412 61.8595C91.6053 61.1778 91.4977 60.6037 91.39 60.1013C91.1388 59.0249 90.7441 58.2355 90.17 57.8049C89.6318 57.3385 88.9142 57.1232 88.0172 57.1232C87.156 57.1232 86.4384 57.3385 85.9002 57.8049C85.3619 58.2714 84.9672 59.0249 84.6802 60.1013C84.4649 61.0701 84.3214 62.4336 84.2855 64.1918V65.1247C84.2855 65.9859 84.3214 66.7394 84.3931 67.4212C84.5367 68.1029 84.6084 68.677 84.7519 69.1793ZM108.721 56.6926L104.523 69.1793L100.253 56.6926H96.4134L96.5928 57.1949H99.1763L96.8799 58.0202C97.131 57.769 102.154 72.7316 102.154 72.7316H103.949L109.331 56.6926H108.721Z" fill="white"/>
<path d="M33.8721 81.7379C33.8721 81.128 33.5491 80.8409 32.975 80.8409C31.3963 80.8409 28.4181 83.8191 28.454 86.3308C28.454 87.3354 28.9563 88.1966 30.0687 88.1966C31.2527 88.1966 32.1498 87.4072 32.6521 86.4025C32.7239 86.259 33.0468 86.4025 33.0109 86.5819C32.6162 87.7301 31.3963 88.6989 30.1404 88.6989C28.8487 88.6989 27.8799 88.0531 27.8799 86.2231C27.8799 84.0344 30.6786 80.4462 33.0109 80.4462C33.8003 80.4462 34.3027 80.9486 34.3027 81.7379C34.3027 83.0297 33.0827 84.2496 32.0062 84.8238C31.8627 84.8955 31.1451 85.2543 30.8939 85.2543C30.8222 85.2543 30.7863 85.2184 30.7863 85.1826C30.7863 85.0032 30.9298 84.752 31.1092 84.6802C31.7192 84.429 31.6474 84.5008 32.1139 84.2138C32.975 83.7473 33.8721 82.7426 33.8721 81.7379ZM57.2668 86.9408C57.2668 87.1202 57.195 87.1919 57.0874 87.2637C56.5133 87.6943 55.5086 88.6631 54.3245 88.6631C53.5351 88.6631 53.3198 88.1607 53.2839 87.3713C52.6739 88.0531 51.2028 88.986 50.7364 89.7036C50.5211 90.0265 49.9111 91.9642 49.4805 91.9642C49.2652 91.9642 49.1935 91.7489 49.1935 91.5695C49.1935 90.3136 50.1981 89.7395 50.5569 88.9142L51.2387 87.3355L51.2028 87.2996C50.844 87.6943 50.1623 88.6272 49.4805 88.6272C48.6911 88.6272 48.5117 88.0531 48.4758 87.3355C47.9017 87.8737 46.6818 88.6272 46.3588 88.6272C46.1435 88.6272 46 88.5554 46 88.3401C46 88.089 46.2153 87.7301 46.2871 87.5149L46.2512 87.479C45.9282 87.8737 45.3541 88.6272 44.7442 88.6272C43.9906 88.6272 43.8112 88.1966 43.7754 87.2637C43.7395 87.2996 43.7395 87.2996 43.7036 87.3355C43.273 87.7301 42.053 88.6272 41.4072 88.6272C41.2278 88.6272 41.0125 88.5913 41.0125 88.376C41.0125 87.8378 41.6225 86.8331 41.8019 86.2949L41.766 86.259L40.7972 87.1919C40.7613 87.2278 40.7613 87.2278 40.7254 87.2278C40.6896 87.2637 40.6537 87.2996 40.6178 87.3355C40.1872 87.7301 38.9672 88.6272 38.3214 88.6272C38.142 88.6272 37.9267 88.5913 37.9267 88.376C37.9267 87.8378 38.5367 86.8331 38.7161 86.2949L38.6802 86.259L37.7114 87.1919C37.6755 87.2278 37.6755 87.2278 37.6396 87.2278C37.6037 87.2637 37.5679 87.2996 37.532 87.3355C37.2449 87.5507 36.9579 87.6584 36.5991 87.6584C36.4914 87.6584 36.3479 87.6584 36.2761 87.5866C35.9173 88.0531 35.1997 88.5913 34.5897 88.5913C33.6927 88.5913 33.6568 87.7301 33.6568 86.9408C33.6568 85.4337 35.4509 84.2138 36.0967 84.2138C36.2761 84.2138 36.312 84.2855 36.312 84.4291C36.312 84.6085 36.1685 84.6443 35.702 84.7879C34.9485 85.0749 34.1232 86.0078 34.1232 87.0125C34.1232 87.6225 34.195 88.1607 34.7332 88.1607C35.1638 88.1607 35.702 87.6584 35.9173 87.2996C35.7379 87.0843 35.6303 86.7972 35.6303 86.5102C35.6303 85.8284 36.025 84.7879 36.6708 84.7879C36.9938 84.7879 37.0655 85.1108 37.0655 85.3978C37.0655 86.0437 36.8502 86.6178 36.5273 87.1202C36.5991 87.156 36.6708 87.1919 36.7426 87.1919C37.1014 87.1919 37.3885 86.869 37.6755 86.6537C38.0343 86.259 38.9672 85.4337 39.1108 85.1108L39.6849 83.6755H38.9672C38.7878 83.6755 38.6802 83.6397 38.6802 83.4961C38.6802 83.3885 38.752 83.245 38.8955 83.245H39.8643C40.0078 82.922 40.6178 80.7691 41.0484 80.7691C41.156 80.7691 41.2278 80.8409 41.2278 80.9844C41.2278 81.5227 40.546 82.6709 40.4025 83.2808H41.156C41.1919 83.2808 41.1919 83.3526 41.1919 83.4244C41.1919 83.6038 41.0842 83.7114 40.869 83.7114H40.2231C40.0078 84.2496 38.5367 87.6225 38.5367 87.9095C38.5367 88.0172 38.6443 88.0531 38.7161 88.0531C39.1467 88.0531 40.5101 86.869 40.6537 86.7255L40.6896 86.6896C41.0842 86.2949 41.9813 85.4696 42.1248 85.1467L42.6989 83.7114H41.9813C41.8019 83.7114 41.6942 83.6755 41.6942 83.532C41.6942 83.4244 41.766 83.2808 41.9095 83.2808H42.8783C43.0218 82.9579 43.6318 80.805 44.0624 80.805C44.1701 80.805 44.2418 80.8768 44.2418 81.0203C44.2418 81.5585 43.5601 82.7067 43.4165 83.3167H44.17C44.2059 83.3167 44.2059 83.3885 44.2059 83.4602C44.2059 83.6397 44.0983 83.7473 43.883 83.7473H43.2371C43.0218 84.2855 41.5507 87.6584 41.5507 87.9454C41.5507 88.0531 41.6584 88.089 41.7301 88.089C42.1607 88.089 43.5242 86.9049 43.6677 86.7613C43.883 85.4337 46.0359 84.3932 47.1123 84.3932C47.3994 84.3932 48.0452 84.5008 48.117 84.7161C48.117 84.7879 48.0094 85.039 47.9376 85.039C47.8658 85.039 47.7223 84.752 47.0764 84.752C46.0359 84.752 44.1342 85.9361 44.1342 87.0843C44.1342 87.0843 44.1342 87.1202 44.1342 87.156C44.1342 87.5507 44.1342 88.1607 44.6365 88.1607C45.2824 88.1607 46.7894 86.0796 47.0406 85.649C47.1482 85.4337 47.22 85.362 47.4353 85.362C47.4711 85.362 47.7223 85.362 47.7223 85.3978C47.7223 85.5055 46.5741 87.8019 46.4665 88.089C47.22 87.9095 47.83 87.3354 48.4041 86.8331C48.5835 85.5414 50.7722 84.3932 51.8846 84.3932C52.2075 84.3932 52.9251 84.6085 52.9251 84.7879C52.9251 84.8955 52.8892 85.1826 52.7457 85.1826C52.6381 85.1826 52.4587 84.752 51.8487 84.752C50.7722 84.752 48.8346 85.9719 48.8346 87.1919C48.8346 87.6225 48.8346 88.1607 49.4087 88.1607C50.2699 88.1607 51.6334 85.5773 52.1716 85.5773C52.2434 85.5773 52.3151 85.6131 52.351 85.649C52.4587 85.7208 51.1311 88.5913 51.1311 88.5913H51.1669C51.3822 88.4119 52.674 87.3713 53.1763 86.869C53.3198 85.7567 54.9704 84.4291 55.9033 84.4291C56.3697 84.4291 56.6927 84.6802 56.6927 85.039C56.6927 86.1514 55.5445 87.0843 54.0733 87.0843H53.7145C53.7145 87.156 53.7145 87.2637 53.7145 87.3355C53.7145 87.8019 53.858 88.2684 54.468 88.2684C55.688 88.2684 57.0874 86.7255 57.195 86.7255C57.2309 86.7255 57.2668 86.9049 57.2668 86.9408ZM53.8222 86.6537C53.9298 86.6896 54.0374 86.6896 54.1451 86.6896C55.2215 86.6896 56.2621 85.9002 56.2621 85.0749C56.2621 84.8596 56.0827 84.7879 55.8674 84.7879C55.2574 84.7879 53.9298 86.0078 53.8222 86.6537ZM36.7426 85.5773C36.7426 85.5414 36.7426 85.362 36.6349 85.362C36.3479 85.362 36.0967 86.1155 36.0967 86.4384C36.0967 86.6537 36.1326 86.869 36.2403 87.0484C36.4555 86.6896 36.7426 86.0078 36.7426 85.5773ZM64.3354 84.2138C63.869 84.5008 63.9407 84.429 63.3307 84.6802C63.1513 84.752 63.0078 85.0032 63.0078 85.1826C63.0078 85.2184 63.0437 85.2543 63.1155 85.2543C63.4025 85.2543 64.1201 84.8955 64.2278 84.8238C65.2683 84.2138 66.5242 83.0297 66.5242 81.7379C66.5242 80.9486 66.0577 80.4462 65.2325 80.4462C62.9002 80.4462 60.1014 84.0344 60.1014 86.2231C60.1014 88.0531 61.0702 88.6989 62.3619 88.6989C63.6178 88.6989 64.8378 87.7301 65.2325 86.5819C65.2683 86.4384 64.9454 86.2949 64.8736 86.4025C64.3713 87.4072 63.4743 88.1966 62.2902 88.1966C61.1778 88.1966 60.6755 87.3354 60.6396 86.3308C60.6037 83.8549 63.5819 80.8409 65.1607 80.8409C65.7348 80.8409 66.0577 81.128 66.0577 81.7379C66.0218 82.7426 65.1248 83.7473 64.3354 84.2138ZM94.1888 86.9408C94.1888 87.1919 94.0811 87.1919 93.9376 87.3355C93.5429 87.7301 92.287 88.6631 91.7488 88.6631C91.4259 88.6631 91.3541 88.4837 91.3541 88.1966C91.3541 88.1607 91.3541 88.1248 91.3541 88.089L91.39 86.9766C91.39 86.9766 89.9189 88.5195 89.8112 88.5913C89.6677 88.7348 89.1295 88.6989 89.4165 88.376C89.5959 88.1966 90.4212 87.2996 90.4212 87.2996C90.5647 87.156 91.4259 86.3308 91.4259 86.2231L91.4977 85.1826C91.4977 85.1467 91.4977 85.1108 91.4977 85.0749C91.4977 85.0032 91.4977 84.9673 91.4259 84.9673C91.2465 84.9673 89.5242 87.0484 89.1295 87.2996C88.5554 87.766 87.5866 88.6989 86.3666 88.6989C85.5772 88.6989 85.3619 88.1966 85.3261 87.4431C84.8596 87.8737 83.6755 88.6989 83.1373 88.6989C82.9579 88.6989 82.7067 88.6989 82.7067 88.4119C82.7067 88.1607 83.1373 86.8331 83.2449 86.5102L83.2091 86.4743C83.1373 86.5461 82.5991 87.1202 82.3838 87.2637C82.2761 87.3713 82.1685 87.4431 82.0967 87.5149C81.4509 88.0531 80.5538 88.4119 79.6927 88.4119C79.585 88.4119 79.5133 88.4478 79.4056 88.5195C79.298 88.5913 79.1544 88.6631 78.9033 88.6631C78.5803 88.6631 78.1857 88.5195 78.1857 88.2325C78.1857 88.0531 78.5803 88.0531 78.7239 88.0531C78.8315 88.0531 78.975 88.089 79.0468 88.089C79.2262 88.089 79.4415 88.089 79.5491 87.9095C80.195 87.1919 81.0203 86.3667 81.0203 85.362C81.0203 85.039 80.9126 84.8238 80.5897 84.8238C79.8721 84.8238 78.5445 86.5819 78.1498 87.5149C77.7551 88.4119 77.2886 90.5648 77.2169 91.2824C77.181 91.4618 77.0374 92 76.7863 92C76.6427 92 76.6427 91.8206 76.6427 91.6771C76.6427 91.6412 76.6427 91.6053 76.6427 91.6053C76.6427 90.5648 77.6833 87.2637 78.1498 86.1872L78.1139 86.1514C78.0421 86.2231 77.0733 87.2278 76.9298 87.2996C76.6786 87.5507 75.2075 88.6631 74.7052 88.6631C74.454 88.6631 74.3463 88.5913 74.3463 88.3401C74.3463 88.2325 74.6693 87.5866 74.9922 86.9049C75.3151 86.2231 75.6381 85.5414 75.7098 85.3261C75.7098 85.2902 75.7098 85.2902 75.7098 85.2543V85.2184C75.6739 85.2184 75.6381 85.2902 75.6022 85.2902C74.9204 85.7567 73.2699 87.766 72.5881 88.4119C72.5164 88.4837 72.3729 88.6272 72.2652 88.6272C72.0858 88.6272 72.0499 88.5554 72.0499 88.4119C72.0499 88.1966 72.3729 87.5148 72.6958 86.8331C73.0187 86.1514 73.3417 85.4696 73.4134 85.2902C73.4134 85.2902 73.4134 85.2902 73.4134 85.2543C73.4134 85.2184 73.4134 85.1826 73.3775 85.1826C73.3417 85.1826 73.3058 85.2184 73.3058 85.2543C72.4805 85.8284 70.3635 88.5913 69.9688 88.5913C69.8612 88.5913 69.7535 88.5195 69.7535 88.4119C69.7894 88.089 70.2559 87.2278 70.3994 86.7613L70.4353 86.6178C70.4353 86.6178 69.8253 87.2278 69.7535 87.2278C69.7535 87.2278 69.7535 87.2278 69.7176 87.2278C69.6818 87.2637 69.6817 87.2637 69.6459 87.2996C69.3588 87.5149 69.0718 87.6225 68.7129 87.6225C68.6053 87.6225 68.4618 87.6225 68.39 87.5507C68.0312 88.0172 67.3136 88.5554 66.7036 88.5554C65.8066 88.5554 65.7707 87.6943 65.7707 86.9049C65.7707 85.3978 67.5647 84.1779 68.2106 84.1779C68.39 84.1779 68.4259 84.2496 68.4259 84.3932C68.4259 84.5726 68.2824 84.6085 67.8159 84.752C67.0624 85.039 66.2371 85.972 66.2371 86.9766C66.2371 87.5866 66.3089 88.1248 66.8471 88.1248C67.2777 88.1248 67.8159 87.6225 68.0312 87.2637C67.8518 87.0484 67.7442 86.7613 67.7442 86.4743C67.7442 85.7925 68.1388 84.752 68.7847 84.752C69.1076 84.752 69.1794 85.0749 69.1794 85.362C69.1794 86.0078 68.9641 86.5819 68.6412 87.0843C68.713 87.1202 68.7847 87.156 68.8565 87.156C69.2512 87.156 69.5382 86.7972 69.8612 86.5819C70.1841 86.259 70.83 85.7567 71.0094 85.362C71.2605 84.8238 71.3323 84.3573 71.727 84.3573C71.8346 84.3573 71.9423 84.3932 71.9423 84.4649C71.9423 84.5367 71.8705 84.6802 71.7988 84.7879L70.6864 87.1202H70.7223C71.1888 86.5819 73.3058 84.2496 73.8799 84.2496C74.0952 84.2496 74.1669 84.2855 74.2028 84.5008C74.2028 84.752 73.1622 86.7255 73.0546 87.0843L73.0905 87.1202C73.5569 86.6178 75.5663 84.2855 76.2122 84.2855C76.4275 84.2855 76.4992 84.4291 76.4992 84.5726C76.4992 84.6085 76.1763 85.3261 75.8534 86.0796C75.5304 86.8331 75.1357 87.6225 75.064 87.8378C75.064 87.8737 75.064 87.8737 75.064 87.9095C75.064 87.9454 75.064 87.9813 75.0998 87.9813C75.351 87.9813 76.4633 87.0843 76.8939 86.6896C76.9298 86.6178 77.0016 86.5819 77.0733 86.5102C77.5757 86.0796 78.5445 85.2184 78.7956 84.5726C78.8674 84.3932 78.9033 84.3573 79.1186 84.3573C79.1903 84.3573 79.298 84.3573 79.3697 84.3932C79.4415 84.4291 79.0827 85.3261 79.0827 85.3261L79.1186 85.362C79.4415 84.9673 80.1232 84.2496 80.6974 84.2496C81.3791 84.2496 81.6661 84.5726 81.6661 85.2184C81.6661 86.1514 80.9844 87.156 80.3027 87.766H80.3385C81.2356 87.766 82.1326 86.9049 82.4555 86.6537C82.7785 86.2949 83.5679 85.7208 83.7114 85.2543L85.4337 80.4821C85.5055 80.2668 85.6131 80.0515 85.8643 80.0515C85.9719 80.0515 86.0078 80.1592 86.0078 80.3027C86.0078 80.9127 84.8237 83.4961 84.1778 85.4696C84.1061 85.7208 83.3526 87.6584 83.3526 87.8737C83.3526 87.9813 83.4243 87.9813 83.532 87.9813C83.9267 87.9813 85.039 87.0125 85.4337 86.7255C85.5772 85.6131 87.2278 84.2855 88.1607 84.2855C88.6271 84.2855 88.9501 84.5367 88.9501 84.8955C88.9501 86.0078 87.8019 86.9408 86.3307 86.9408H85.9002C85.9002 87.0125 85.9002 87.1202 85.9002 87.1919C85.9002 87.6584 86.0437 88.1248 86.6537 88.1248C87.6942 88.1248 88.9142 86.9766 89.273 86.6896C89.273 86.6896 89.273 86.6537 89.3089 86.6537L91.3541 84.4649C91.4259 84.3573 91.6412 84.2855 91.7488 84.2855C92.0359 84.2855 92.0718 84.4649 92.0718 84.6802C92.0718 84.7161 92.0718 84.752 92.0718 84.752L92.0359 85.6849C92.0359 85.6849 93.1123 84.5008 93.22 84.3932C93.4711 84.142 93.9017 84.3214 93.7582 84.4649C93.6505 84.5726 92.2512 86.0796 92.2512 86.0796C92.1435 86.1872 91.9641 86.3308 91.9282 86.4384L91.8565 87.6225C91.8565 87.6584 91.8565 87.7301 91.8565 87.8019C91.8565 87.9095 91.8924 88.0172 92 88.0172C92.3588 88.0172 93.6505 87.0125 94.0452 86.6178C94.117 86.5461 94.117 86.5461 94.1529 86.5461C94.1888 86.7255 94.1888 86.9049 94.1888 86.9408ZM86.0078 86.6537C86.1154 86.6896 86.2231 86.6896 86.3307 86.6896C87.4072 86.6896 88.4477 85.9002 88.4477 85.0749C88.4477 84.8596 88.2683 84.7879 88.053 84.7879C87.4431 84.7879 86.1154 86.0078 86.0078 86.6537ZM68.9282 85.5773C68.9282 85.5414 68.9282 85.362 68.8206 85.362C68.5335 85.362 68.2824 86.1155 68.2824 86.4384C68.2824 86.6537 68.3183 86.869 68.4259 87.0484C68.6053 86.6896 68.9282 86.0078 68.9282 85.5773Z" fill="#C9A86C"/>
<path d="M61.0704 0C48.3324 0 40.7256 9.11388 40.7256 24.3635C40.7256 39.6131 48.3324 48.727 61.0704 48.727C73.8083 48.727 81.4151 39.6131 81.4151 24.3635C81.4151 9.11388 73.8083 0 61.0704 0ZM79.047 18.5148C77.0376 19.0889 75.1359 19.8424 73.3059 20.8112C74.49 18.2995 76.0688 15.9672 77.9346 13.922C78.437 15.4649 78.7958 17.0078 79.047 18.5148ZM74.8488 8.03744C75.8894 9.40093 76.7147 10.908 77.3605 12.4509C74.7412 15.1778 72.6242 18.4431 71.2248 22.0312C68.3543 23.8611 65.8426 26.1934 63.7973 28.8846C63.5103 26.4446 62.9003 24.1123 62.0033 21.8877C64.5509 15.8596 69.1078 10.9797 74.8488 8.03744ZM73.88 6.92512C70.4713 8.71919 67.4573 11.195 65.0173 14.1732C64.0126 13.3838 63.0797 12.4867 62.1827 11.5538C63.6538 8.6833 64.6585 5.56162 65.0891 2.26053C68.9643 2.97816 71.7989 4.66459 73.88 6.92512ZM61.0704 1.90172C62.0033 1.90172 62.8644 1.97348 63.6897 2.04524C63.295 4.98752 62.4338 7.82215 61.178 10.4056C59.1686 8.03744 57.554 5.31045 56.4417 2.36817C57.841 2.08112 59.348 1.90172 61.0704 1.90172ZM55.0423 2.72699C56.9081 7.7145 60.0657 12.0203 64.1562 15.2855C63.0438 16.7925 62.075 18.4072 61.2856 20.0936C58.5587 14.3526 54.0017 9.68798 48.3683 6.78159C50.0548 5.0234 52.2076 3.58814 55.0423 2.72699ZM47.3637 7.89391C56.3699 12.3791 62.6133 21.7083 62.6133 32.4368C62.6133 35.415 62.1468 38.2855 61.2498 40.9407C60.3886 38.2496 59.8863 35.415 59.8863 32.4368C59.8863 30.248 60.1374 28.131 60.6398 26.0858C60.4245 25.2246 60.1733 24.3635 59.8504 23.5382C59.3122 25.2605 58.8816 27.0187 58.6663 28.8487C56.6211 26.1576 54.1094 23.8253 51.2747 21.9953C49.8395 18.2636 47.6148 14.8908 44.852 12.1279C45.4978 10.6568 46.3231 9.18565 47.3637 7.89391ZM44.3137 13.5991C46.3231 15.7161 47.9736 18.1201 49.2295 20.8112C47.3278 19.8065 45.2825 18.9813 43.1296 18.4072C43.3449 16.8643 43.7396 15.2137 44.3137 13.5991ZM44.3137 35.092L43.8832 33.6927C42.8785 30.1763 42.6632 26.6958 42.6632 24.3276C42.6632 23.0718 42.7349 21.5289 42.9502 19.8065C46.7537 20.8471 50.2342 22.6771 53.1764 25.0811L54.2888 26.014C55.9034 27.4852 57.3387 29.1716 58.5587 31.0016C58.5228 31.468 58.5228 31.8986 58.5228 32.365C58.5228 36.0967 59.2404 39.649 60.5321 42.9501C59.9939 44.2418 59.348 45.4618 58.6663 46.6459C50.27 45.8206 46.2154 40.5819 44.3137 35.092ZM77.8987 34.9126C76.0329 40.4025 72.086 45.6412 63.905 46.6459C63.4744 45.9282 63.0797 45.2465 62.7209 44.493C62.4697 45.0312 62.2186 45.5694 61.9674 46.1076C62.075 46.3229 62.2186 46.5382 62.3262 46.7894C61.9315 46.8253 61.5009 46.8253 61.0704 46.8253C60.7833 46.8253 60.4963 46.8253 60.2092 46.7894C62.6491 42.5554 64.0485 37.6755 64.0485 32.4368C64.0485 31.9704 64.0485 31.5039 64.0126 31.0374C65.2326 29.2075 66.6679 27.5569 68.3184 26.0499L69.3949 25.117C72.2654 22.7488 75.6023 20.9548 79.2622 19.9142C79.4775 21.6006 79.5134 23.1076 79.5134 24.3276C79.5134 26.6599 79.2981 30.0328 78.3293 33.4774L77.8987 34.9126Z" fill="#C9A86C"/>
</svg>
