<svg width="47" height="47" viewBox="0 0 47 47" fill="none" xmlns="http://www.w3.org/2000/svg">
<circle opacity="0.4" cx="23.5" cy="23.5" r="23.5" fill="#C9A86C"/>
<circle cx="23.5" cy="23.5" r="17.5" fill="#C9A86C"/>
<g clip-path="url(#clip0_219_720)">
<path d="M18.667 25.9652C20.4424 28.0874 22.5796 29.7584 25.0189 30.9407C25.9476 31.3809 27.1896 31.903 28.5734 31.9925C28.6592 31.9963 28.7412 32 28.827 32C29.7557 32 30.5017 31.6792 31.1096 31.0191C31.1134 31.0153 31.1208 31.0079 31.1246 31.0004C31.3409 30.7393 31.5871 30.5044 31.8444 30.2545C32.0197 30.0866 32.1988 29.9113 32.3703 29.7323C33.1648 28.9043 33.1648 27.8525 32.3629 27.0506L30.1213 24.809C29.7408 24.4136 29.2858 24.2047 28.8084 24.2047C28.331 24.2047 27.8722 24.4136 27.4806 24.8052L26.1453 26.1405C26.0222 26.0696 25.8954 26.0062 25.776 25.9465C25.6268 25.8719 25.4888 25.8011 25.3658 25.7228C24.1498 24.9507 23.0458 23.9436 21.9903 22.6494C21.4569 21.9743 21.0989 21.4074 20.849 20.8293C21.1996 20.5122 21.5278 20.1803 21.8448 19.8558C21.9567 19.7402 22.0724 19.6245 22.188 19.5089C22.5908 19.1061 22.8071 18.6399 22.8071 18.1662C22.8071 17.6925 22.5945 17.2263 22.188 16.8235L21.0765 15.712C20.946 15.5814 20.8229 15.4546 20.6961 15.3241C20.4499 15.0705 20.1925 14.8094 19.9389 14.5744C19.5547 14.1977 19.1034 14 18.626 14C18.1523 14 17.6973 14.1977 17.2982 14.5781L15.9033 15.9731C15.396 16.4803 15.1088 17.0957 15.0491 17.8081C14.9783 18.6995 15.1424 19.6469 15.5676 20.792C16.2203 22.5636 17.205 24.2085 18.667 25.9652ZM15.9592 17.8864C16.004 17.3904 16.1942 16.9764 16.5523 16.6183L17.9397 15.2308C18.1561 15.022 18.3948 14.9138 18.626 14.9138C18.8535 14.9138 19.0848 15.022 19.2974 15.2383C19.5473 15.4695 19.7823 15.712 20.0359 15.9693C20.1627 16.0999 20.2932 16.2304 20.4238 16.3647L21.5353 17.4762C21.7665 17.7074 21.8859 17.9424 21.8859 18.1736C21.8859 18.4049 21.7665 18.6399 21.5353 18.8711C21.4196 18.9867 21.304 19.1061 21.1884 19.2217C20.8415 19.5723 20.517 19.9043 20.159 20.2213C20.1515 20.2288 20.1478 20.2325 20.1403 20.24C19.8307 20.5495 19.8792 20.8442 19.9538 21.068C19.9576 21.0792 19.9613 21.0866 19.965 21.0978C20.2522 21.7878 20.6513 22.4443 21.2742 23.2275C22.3931 24.6075 23.5717 25.678 24.8697 26.5023C25.0301 26.6067 25.2017 26.6888 25.362 26.7708C25.5112 26.8454 25.6492 26.9163 25.7723 26.9946C25.7872 27.0021 25.7984 27.0095 25.8133 27.017C25.9364 27.0804 26.0558 27.1102 26.1751 27.1102C26.4735 27.1102 26.6675 26.92 26.7309 26.8566L28.1258 25.4617C28.3421 25.2453 28.5771 25.1297 28.8084 25.1297C29.0918 25.1297 29.3231 25.305 29.4685 25.4617L31.7176 27.707C32.1652 28.1546 32.1615 28.6395 31.7064 29.1131C31.5498 29.281 31.3857 29.4414 31.2104 29.6092C30.9493 29.8628 30.677 30.1239 30.4308 30.4186C30.0019 30.8811 29.4909 31.0974 28.8307 31.0974C28.7673 31.0974 28.7002 31.0937 28.6368 31.0899C27.4134 31.0116 26.2758 30.5342 25.4217 30.1276C23.1018 29.005 21.0653 27.4123 19.3757 25.3908C17.9845 23.7161 17.0483 22.1571 16.4292 20.4861C16.045 19.4604 15.8995 18.6361 15.9592 17.8864Z" fill="white"/>
</g>
<defs>
<clipPath id="clip0_219_720">
<rect width="18" height="18" fill="white" transform="translate(15 14)"/>
</clipPath>
</defs>
</svg>
