<svg width="31" height="30" viewBox="0 0 31 30" fill="none" xmlns="http://www.w3.org/2000/svg">
<path d="M14.2024 26.25V14.5H9.25195V12.5H14.2024V9.9125C14.2024 7.7625 14.4128 6.975 14.8336 6.175C15.2297 5.4125 15.8485 4.7875 16.6034 4.3875C17.3831 3.9625 18.1752 3.75 20.3039 3.75C20.8485 3.75 21.3312 3.8 21.752 3.8875V5.75H20.3039C18.7198 5.75 18.1257 5.8375 17.544 6.15C17.1232 6.375 16.8015 6.7 16.5787 7.125C16.2693 7.7125 16.1826 8.3125 16.1826 9.9125V12.5H21.6777L21.1826 14.5H16.1826V26.25H14.2024Z" fill="#C9A86C"/>
</svg>
