<svg width="31" height="30" viewBox="0 0 31 30" fill="none" xmlns="http://www.w3.org/2000/svg">
<path d="M15.5014 8.82861C12.0985 8.82861 9.33008 11.597 9.33008 14.9999C9.33008 18.4028 12.0985 21.1712 15.5014 21.1712C18.9042 21.1712 21.6727 18.4027 21.6727 14.9999C21.6727 11.597 18.9042 8.82861 15.5014 8.82861ZM15.5014 19.8425C12.8312 19.8425 10.6588 17.6701 10.6588 14.9999C10.6588 12.3296 12.8312 10.1573 15.5014 10.1573C18.1716 10.1573 20.344 12.3297 20.344 14.9999C20.344 17.6701 18.1716 19.8425 15.5014 19.8425Z" fill="#C9A86C" stroke="#C9A86C" stroke-width="0.2"/>
<path d="M20.2471 9.06738C20.2471 8.3392 20.8374 7.74902 21.5654 7.74902C22.2936 7.74902 22.8838 8.3392 22.8838 9.06738C22.8838 9.79557 22.2936 10.3857 21.5654 10.3857C20.8374 10.3857 20.2471 9.79557 20.2471 9.06738Z" fill="#C9A86C"/>
<path d="M20.5839 3.75H10.42C7.01893 3.75 4.25195 6.51697 4.25195 9.91808V20.082C4.25195 23.4831 7.01893 26.25 10.42 26.25H20.5839C23.985 26.25 26.752 23.4831 26.752 20.082V9.91808C26.752 6.51697 23.985 3.75 20.5839 3.75ZM25.4232 20.082C25.4232 22.7504 23.2524 24.9213 20.5839 24.9213H10.42C7.75158 24.9213 5.58068 22.7504 5.58068 20.082V9.91808C5.58068 7.24963 7.75158 5.07873 10.42 5.07873H20.5839C23.2524 5.07873 25.4232 7.24963 25.4232 9.91808V20.082Z" fill="#C9A86C" stroke="#C9A86C" stroke-width="0.2"/>
</svg>
