<svg width="31" height="30" viewBox="0 0 31 30" fill="none" xmlns="http://www.w3.org/2000/svg">
<path d="M15.502 25C15.4262 25 7.91357 24.9873 5.77973 24.3924C4.7065 24.0886 3.87316 23.2025 3.58276 22.0759C3.01458 19.8228 3.00195 15.0506 3.00195 15C3.00195 14.9494 3.01458 10.1646 3.58276 7.92405C3.87316 6.79747 4.7065 5.91139 5.77973 5.60759C7.91357 5.01266 15.4262 5 15.502 5C15.5777 5 23.103 5.01266 25.2242 5.60759C26.2974 5.91139 27.1307 6.79747 27.4211 7.92405C27.9893 10.1646 28.002 14.9494 28.002 15C28.002 15.0506 27.9893 19.8354 27.4211 22.0759C27.1307 23.2025 26.2848 24.0886 25.2242 24.3924C23.103 24.9873 15.5777 25 15.502 25ZM15.502 6.70886C9.47923 6.70886 6.76458 7.10127 6.22165 7.25316C5.74185 7.3924 5.35044 7.82278 5.21155 8.35443C5.07266 8.88608 4.68124 11.2405 4.68124 15.0127C4.68124 18.7722 5.07266 21.1392 5.21155 21.6709C5.35044 22.2025 5.74185 22.6329 6.22165 22.7722C6.75195 22.9241 9.45397 23.3165 15.4893 23.3165C21.5247 23.3165 24.2267 22.9241 24.7696 22.7722C25.2494 22.6329 25.6408 22.2025 25.7797 21.6709C25.9186 21.1392 26.31 18.7848 26.31 15.0253C26.31 11.2658 25.9186 8.91139 25.7797 8.36709C25.6408 7.83544 25.2621 7.40506 24.7696 7.26582C24.2393 7.10127 21.5373 6.70886 15.502 6.70886ZM13.3555 11.2152L19.7823 15L13.3555 18.7848V11.2152V11.2152Z" fill="#C9A86C"/>
</svg>
