<svg width="25" height="22" viewBox="0 0 25 22" fill="none" xmlns="http://www.w3.org/2000/svg">
<path d="M0.420334 10.3502L6.37652 13.3187C6.60689 13.4323 6.87887 13.4242 7.09909 13.2953L12.4007 10.2132L9.19172 13.0568C9.02833 13.202 8.93497 13.409 8.93497 13.6272V20.5536C8.93497 21.2843 9.86762 21.5918 10.305 21.0113L12.8797 17.5882L19.2469 21.2142C19.6934 21.471 20.2658 21.2132 20.3693 20.7028L24.3405 0.913094C24.4592 0.318389 23.8675 -0.166711 23.3175 0.0545272L0.483255 8.95988C-0.129717 9.19938 -0.169297 10.0569 0.420334 10.3502ZM22.5746 1.97869L19.0845 19.3703L13.0512 15.934C12.7224 15.7462 12.2992 15.8294 12.0658 16.1379L10.4572 18.2762V13.9692L19.1353 6.28066C19.8223 5.67276 19.0328 4.59194 18.2483 5.05269L6.68909 11.7731L2.63779 9.75451L22.5746 1.97869Z" fill="#C9A86C"/>
</svg>
