<svg width="30" height="30" viewBox="0 0 30 30" fill="none" xmlns="http://www.w3.org/2000/svg">
<path d="M12.3874 26C10.786 26 9.27563 25.4891 8.01966 24.5223C7.78505 24.3418 7.55946 24.1446 7.34891 23.9366C5.88282 22.4877 5.14505 20.558 5.27181 18.5028C5.36763 16.9495 5.99325 15.452 7.03438 14.2863C8.41325 12.7424 10.3142 11.8921 12.3879 11.8921C12.7441 11.8921 13.1037 11.9187 13.4578 11.9711L14.0078 12.0528V16.9336L13.1609 16.6539C12.9142 16.5722 12.6577 16.531 12.3982 16.531C11.7425 16.531 11.1284 16.7879 10.6691 17.2541C10.2119 17.7182 9.96571 18.3318 9.97516 18.9828C9.98763 19.822 10.4298 20.5825 11.1577 21.0182C11.4928 21.2184 11.8744 21.3357 12.262 21.3572C12.5679 21.374 12.87 21.334 13.1604 21.2382C14.1534 20.9104 14.8208 19.9891 14.8208 18.9462L14.825 13.8845V4H19.4897L19.4953 4.63852C19.4979 4.9277 19.5275 5.21687 19.5834 5.49703C19.8025 6.59875 20.4204 7.58059 21.3232 8.26121C22.1246 8.86578 23.0811 9.18504 24.0883 9.18504C24.1119 9.18504 24.1119 9.18504 24.3272 9.20008L24.9266 9.24219V13.1953V13.8398L24.7117 13.8394H24.2833C24.2799 13.8394 24.2765 13.8394 24.2726 13.8394H24.0668C24.0659 13.8394 24.0646 13.8394 24.0633 13.8394C22.8211 13.8394 21.6571 13.6027 20.5034 13.1158C20.1596 12.9706 19.8249 12.8047 19.5018 12.6195L19.5164 18.9707C19.5086 20.8493 18.7661 22.6115 17.4259 23.9362C16.3384 25.0109 14.966 25.6975 13.4569 25.9209C13.105 25.9734 12.7454 26 12.3874 26ZM12.3874 13.1811C10.6863 13.1811 9.12653 13.8785 7.99559 15.1448C7.14653 16.0957 6.63606 17.3164 6.55786 18.5819C6.45474 20.2598 7.05716 21.8359 8.2547 23.0193C8.42786 23.1903 8.61306 23.3523 8.80556 23.5005C9.83423 24.2924 11.073 24.7109 12.3874 24.7109C12.6822 24.7109 12.9783 24.689 13.2683 24.6461C14.5045 24.463 15.629 23.9005 16.5202 23.0197C17.615 21.9377 18.2213 20.4996 18.2277 18.9699L18.2075 10.1016L19.2487 10.9046C19.7862 11.3193 20.3775 11.6639 21.0052 11.929C21.8633 12.2913 22.7283 12.4923 23.6371 12.54V10.4582C22.5139 10.374 21.453 9.9748 20.5468 9.29117C19.3909 8.41977 18.5999 7.16164 18.3188 5.74926C18.2888 5.59758 18.2643 5.44418 18.2462 5.28949H16.1137V13.885L16.1094 18.9467C16.1094 20.5464 15.0867 21.9592 13.5643 22.462C13.1205 22.6085 12.6586 22.6695 12.1911 22.6441C11.5955 22.6115 11.0094 22.4314 10.4955 22.1242C9.38134 21.4578 8.70458 20.2903 8.68567 19.0017C8.67106 18.0031 9.04876 17.0612 9.75001 16.3492C10.4534 15.6351 11.3936 15.2419 12.3973 15.2419C12.5047 15.2419 12.6113 15.2466 12.7179 15.2557V13.1902C12.6079 13.1841 12.4974 13.1811 12.3874 13.1811Z" fill="#C9A86C"/>
</svg>
