<svg width="15" height="15" viewBox="0 0 15 15" fill="none" xmlns="http://www.w3.org/2000/svg">
<g clip-path="url(#clip0_267_2532)">
<path d="M13.75 6.87504C13.5842 6.87504 13.4253 6.94089 13.3081 7.0581C13.1909 7.17531 13.125 7.33428 13.125 7.50004C13.125 8.61256 12.7951 9.70009 12.177 10.6251C11.5589 11.5501 10.6804 12.2711 9.6526 12.6969C8.62476 13.1226 7.49376 13.234 6.40262 13.017C5.31148 12.7999 4.3092 12.2642 3.52253 11.4775C2.73586 10.6908 2.20013 9.68856 1.98309 8.59742C1.76604 7.50628 1.87744 6.37528 2.30318 5.34744C2.72892 4.31961 3.44989 3.4411 4.37492 2.82302C5.29995 2.20494 6.38748 1.87504 7.5 1.87504C8.46858 1.8733 9.42082 2.1245 10.2625 2.60379L9.55813 3.30816C9.47075 3.39557 9.41124 3.50692 9.38714 3.62814C9.36303 3.74936 9.37541 3.87501 9.4227 3.9892C9.47 4.10338 9.55009 4.20099 9.65284 4.26966C9.7556 4.33834 9.87641 4.37501 10 4.37504H12.5C12.6658 4.37504 12.8247 4.30919 12.9419 4.19198C13.0592 4.07477 13.125 3.9158 13.125 3.75004V1.25004C13.125 1.12644 13.0883 1.00563 13.0196 0.902876C12.951 0.80012 12.8534 0.720033 12.7392 0.672739C12.625 0.625446 12.4993 0.613069 12.3781 0.637173C12.2569 0.661278 12.1455 0.720782 12.0581 0.808163L11.1763 1.68754C10.0775 0.989407 8.80177 0.620692 7.5 0.625038C6.14026 0.625038 4.81105 1.02825 3.68046 1.78368C2.54987 2.53912 1.66868 3.61285 1.14833 4.86909C0.627979 6.12533 0.491831 7.50766 0.757104 8.84128C1.02238 10.1749 1.67716 11.3999 2.63864 12.3614C3.60013 13.3229 4.82514 13.9777 6.15876 14.2429C7.49238 14.5082 8.87471 14.3721 10.131 13.8517C11.3872 13.3314 12.4609 12.4502 13.2164 11.3196C13.9718 10.189 14.375 8.85979 14.375 7.50004C14.375 7.33428 14.3092 7.17531 14.1919 7.0581C14.0747 6.94089 13.9158 6.87504 13.75 6.87504Z" fill="white"/>
</g>
<defs>
<clipPath id="clip0_267_2532">
<rect width="15" height="15" fill="white"/>
</clipPath>
</defs>
</svg>
