<svg width="72" height="72" viewBox="0 0 72 72" fill="none" xmlns="http://www.w3.org/2000/svg">
<path d="M69.75 64.125H63V54.5344C63.6433 55.1191 64.4777 55.4493 65.3469 55.463C66.2162 55.4767 67.0606 55.1731 67.722 54.6089C68.3834 54.0448 68.8165 53.2588 68.9401 52.3983C69.0636 51.5378 68.8692 50.6617 68.3932 49.9343L63.5557 42.5093C65.328 41.4897 66.7495 39.9567 67.6325 38.1126C68.5156 36.2685 68.8187 34.2 68.5018 32.18C68.185 30.1601 67.2631 28.2837 65.8579 26.7986C64.4526 25.3134 62.6301 24.2892 60.6308 23.8613C60.7104 23.4119 60.7503 22.9564 60.75 22.5C60.7539 20.9124 60.2766 19.3608 59.3811 18.0498C58.4856 16.7388 57.2139 15.7299 55.7335 15.156C54.2532 14.5822 52.6337 14.4704 51.0886 14.8353C49.5434 15.2002 48.1451 16.0247 47.0779 17.2001L36.9428 1.63575C36.8406 1.47883 36.7008 1.34989 36.5362 1.26063C36.3716 1.17138 36.1873 1.12463 36 1.12463C35.8127 1.12463 35.6284 1.17138 35.4638 1.26063C35.2992 1.34989 35.1594 1.47883 35.0573 1.63575L20.25 24.3754V20.25C20.25 19.9516 20.1315 19.6655 19.9205 19.4545C19.7095 19.2435 19.4234 19.125 19.125 19.125H12.375C12.0766 19.125 11.7905 19.2435 11.5795 19.4545C11.3685 19.6655 11.25 19.9516 11.25 20.25V38.1971L3.60675 49.9343C3.13079 50.6617 2.93638 51.5378 3.05994 52.3983C3.1835 53.2588 3.61655 54.0448 4.27798 54.6089C4.9394 55.1731 5.78382 55.4767 6.65306 55.463C7.52229 55.4493 8.35671 55.1191 9 54.5344V56.7135C7.69308 57.2941 6.65446 58.348 6.093 59.6633C4.725 59.8259 3.46401 60.4842 2.54856 61.5136C1.6331 62.5431 1.12665 63.8724 1.125 65.25V69.75C1.125 70.0484 1.24353 70.3345 1.4545 70.5455C1.66548 70.7565 1.95163 70.875 2.25 70.875H69.75C70.0484 70.875 70.3345 70.7565 70.5455 70.5455C70.7565 70.3345 70.875 70.0484 70.875 69.75V65.25C70.875 64.9516 70.7565 64.6655 70.5455 64.4545C70.3345 64.2435 70.0484 64.125 69.75 64.125ZM52.875 16.875C53.7783 16.8725 54.6688 17.0881 55.4709 17.5035C56.273 17.919 56.9629 18.5219 57.482 19.2612C58.0011 20.0004 58.3341 20.854 58.4525 21.7495C58.571 22.645 58.4715 23.5558 58.1625 24.4046C58.1038 24.5674 58.0835 24.7414 58.103 24.9133C58.1226 25.0852 58.1815 25.2502 58.2752 25.3956C58.3689 25.541 58.4949 25.6629 58.6433 25.7517C58.7918 25.8405 58.9587 25.8938 59.1311 25.9076C60.8142 26.0406 62.4096 26.7121 63.6812 27.8226C64.9528 28.9331 65.833 30.4237 66.1913 32.0735C66.5496 33.7233 66.3671 35.4446 65.6708 36.9826C64.9744 38.5205 63.8012 39.7934 62.325 40.6125L48.357 19.1655C48.879 18.4575 49.5595 17.8816 50.3441 17.4839C51.1286 17.0861 51.9954 16.8776 52.875 16.875ZM13.5 21.375H18V27.8314L13.5 34.7411V21.375ZM7.72312 52.6129C7.62783 52.7593 7.50464 52.8855 7.36058 52.9843C7.21651 53.0831 7.0544 53.1525 6.88349 53.1887C6.71258 53.2248 6.53623 53.227 6.3645 53.195C6.19278 53.1629 6.02903 53.0974 5.88263 53.0021C5.73622 52.9068 5.61001 52.7836 5.51122 52.6396C5.41242 52.4955 5.34297 52.3334 5.30682 52.1625C5.27067 51.9916 5.26855 51.8152 5.30056 51.6435C5.33256 51.4718 5.39808 51.308 5.49337 51.1616L36 4.31213L66.5066 51.1616C66.6019 51.308 66.6674 51.4718 66.6994 51.6435C66.7315 51.8152 66.7293 51.9916 66.6932 52.1625C66.657 52.3334 66.5876 52.4955 66.4888 52.6396C66.39 52.7836 66.2638 52.9068 66.1174 53.0021C65.971 53.0974 65.8072 53.1629 65.6355 53.195C65.4638 53.227 65.2874 53.2248 65.1165 53.1887C64.9456 53.1525 64.7835 53.0831 64.6394 52.9843C64.4954 52.8855 64.3722 52.7593 64.2769 52.6129L36.9428 10.6358C36.8406 10.4788 36.7008 10.3499 36.5362 10.2606C36.3716 10.1714 36.1873 10.1246 36 10.1246C35.8127 10.1246 35.6284 10.1714 35.4638 10.2606C35.2992 10.3499 35.1594 10.4788 35.0573 10.6358L7.72312 52.6129ZM42.75 48.375H29.25C28.9516 48.375 28.6655 48.4935 28.4545 48.7045C28.2435 48.9155 28.125 49.2016 28.125 49.5V64.125H22.3729C22.2158 63.372 21.9066 62.6589 21.4642 62.0296C21.0217 61.4003 20.4554 60.868 19.8 60.4654C19.9267 60.1959 20.0258 59.9144 20.0959 59.625H23.625C23.9234 59.625 24.2095 59.5065 24.4205 59.2955C24.6315 59.0845 24.75 58.7984 24.75 58.5V49.5C24.75 49.2016 24.6315 48.9155 24.4205 48.7045C24.2095 48.4935 23.9234 48.375 23.625 48.375H18C17.7016 48.375 17.4155 48.4935 17.2045 48.7045C16.9935 48.9155 16.875 49.2016 16.875 49.5V54.1598C16.5084 54.0584 16.1303 54.0048 15.75 54C14.9558 54.0036 14.1767 54.217 13.4915 54.6186C12.8064 55.0203 12.2395 55.5959 11.8485 56.2871C11.6496 56.2675 11.4498 56.2597 11.25 56.2635V51.3203L36 13.3121L60.75 51.3203V64.125H43.875V49.5C43.875 49.2016 43.7565 48.9155 43.5455 48.7045C43.3345 48.4935 43.0484 48.375 42.75 48.375ZM41.625 50.625V64.125H37.125V50.625H41.625ZM34.875 50.625V64.125H30.375V50.625H34.875ZM19.125 55.5548V50.625H22.5V57.375H20.0903C19.9145 56.7014 19.584 56.0782 19.125 55.5548ZM6.67238 61.875H6.8625C7.12055 61.8861 7.37456 61.8081 7.58187 61.654C7.78919 61.5 7.93718 61.2793 8.001 61.029V61.0391C8.18454 60.3157 8.60326 59.6737 9.19136 59.2141C9.77946 58.7545 10.5036 58.5033 11.25 58.5C11.5729 58.5059 11.8931 58.5589 12.2006 58.6575C12.3432 58.6996 12.4927 58.7131 12.6405 58.6971C12.7882 58.681 12.9314 58.6359 13.0616 58.5643C13.1919 58.4926 13.3066 58.3958 13.3992 58.2796C13.4919 58.1633 13.5605 58.0298 13.6012 57.8869C13.6951 57.555 13.8642 57.2493 14.0955 56.9935C14.3268 56.7377 14.614 56.5388 14.9348 56.4121C15.2556 56.2855 15.6012 56.2346 15.9449 56.2634C16.2885 56.2922 16.6209 56.3999 16.9161 56.5782C17.2113 56.7564 17.4614 57.0004 17.6469 57.2911C17.8324 57.5819 17.9483 57.9115 17.9856 58.2543C18.0229 58.5971 17.9805 58.944 17.8618 59.2677C17.7432 59.5915 17.5514 59.8836 17.3014 60.1211C17.1581 60.2584 17.0537 60.4311 16.9987 60.6218C16.9437 60.8125 16.9402 61.0143 16.9884 61.2068C17.0366 61.3993 17.1348 61.5756 17.2732 61.7178C17.4115 61.8601 17.585 61.9632 17.7761 62.0168C18.295 62.1626 18.7718 62.4299 19.1669 62.7965C19.5621 63.1631 19.8643 63.6185 20.0486 64.125H3.58088C3.80321 63.4782 4.21908 62.9154 4.77209 62.5129C5.32511 62.1104 5.98852 61.8877 6.67238 61.875ZM68.625 68.625H3.375V66.375H68.625V68.625Z" fill="#C9A86C"/>
<path d="M36 25.875C34.8875 25.875 33.7999 26.2049 32.8749 26.823C31.9499 27.4411 31.2289 28.3196 30.8032 29.3474C30.3774 30.3752 30.266 31.5062 30.4831 32.5974C30.7001 33.6885 31.2359 34.6908 32.0225 35.4775C32.8092 36.2641 33.8115 36.7999 34.9026 37.0169C35.9938 37.234 37.1248 37.1226 38.1526 36.6968C39.1804 36.2711 40.0589 35.5501 40.677 34.6251C41.2951 33.7001 41.625 32.6125 41.625 31.5C41.6232 30.0087 41.03 28.579 39.9755 27.5245C38.921 26.47 37.4913 25.8768 36 25.875ZM36 34.875C35.3325 34.875 34.68 34.6771 34.125 34.3062C33.5699 33.9354 33.1374 33.4083 32.8819 32.7916C32.6265 32.1749 32.5596 31.4963 32.6899 30.8416C32.8201 30.1869 33.1415 29.5855 33.6135 29.1135C34.0855 28.6415 34.6869 28.3201 35.3416 28.1898C35.9963 28.0596 36.6749 28.1265 37.2916 28.3819C37.9083 28.6374 38.4354 29.0699 38.8062 29.625C39.1771 30.18 39.375 30.8325 39.375 31.5C39.375 32.3951 39.0194 33.2536 38.3865 33.8865C37.7536 34.5194 36.8951 34.875 36 34.875Z" fill="#C9A86C"/>
<path d="M48.375 59.625H54C54.2984 59.625 54.5845 59.5065 54.7955 59.2955C55.0065 59.0845 55.125 58.7984 55.125 58.5V49.5C55.125 49.2016 55.0065 48.9155 54.7955 48.7045C54.5845 48.4935 54.2984 48.375 54 48.375H48.375C48.0766 48.375 47.7905 48.4935 47.5795 48.7045C47.3685 48.9155 47.25 49.2016 47.25 49.5V58.5C47.25 58.7984 47.3685 59.0845 47.5795 59.2955C47.7905 59.5065 48.0766 59.625 48.375 59.625ZM49.5 50.625H52.875V57.375H49.5V50.625Z" fill="#C9A86C"/>
</svg>
